<?xml version="1.0" encoding="UTF-8"?>
<svg id="_レイヤー_2" data-name="レイヤー 2" xmlns="http://www.w3.org/2000/svg" viewBox="0 0 889 497.73">
  <defs>
    <style>
      .cls-1 {
        fill: #292a2e;
      }

      .cls-1, .cls-2 {
        stroke-width: 0px;
      }

      .cls-2 {
        fill: #dea22c;
      }
    </style>
  </defs>
  <g id="_レイヤー_1-2" data-name="レイヤー 1">
    <text/>
    <g>
      <g>
        <path class="cls-1" d="m194.43,195.36c-4.32.74-4.8,1.52-6.6,6.97-1.64,4.91-6.87,21.71-10.03,32.09h-1.39c-3.32-9.55-7.77-21.61-10.67-29.14-3.34,9.56-7.15,20.32-10.09,29.14h-1.41c-3.2-10.84-6.5-21.55-9.8-32.35-1.58-5.17-2.1-6.03-6.12-6.71v-.84h15.82v.84c-4.41.76-4.59,1.71-3.59,5.07,2.19,7.43,4.75,15.78,7.08,23.23,3.01-8.66,7.52-22.17,9.72-28.66h1.23c3.52,9.64,7.22,19.2,10.72,28.58,2.59-8.24,4.98-16.5,6.61-22.4,1.08-3.99.78-4.99-4.77-5.83v-.84h13.29v.84Z"/>
        <path class="cls-1" d="m226.42,224.42c-.3,2.06-1.38,7.54-1.78,9.1h-28.56v-.88c5.2-.72,5.6-1.06,5.6-6.25v-24.61c0-5.32-.26-5.75-4.66-6.38v-.88h17.76c5.63,0,7.78-.04,8.49-.12.04,2.22.28,6.22.54,8.51l-.92.16c-.46-1.52-1.26-3.72-2.33-5.09-1.1-1.45-2.21-1.72-5.75-1.72h-5.21c-1.39,0-1.58.22-1.58,1.59v14.19h6.39c4.51,0,4.81-1.13,5.61-4.96h.9v11.67h-.9c-.9-3.77-1.17-4.96-5.57-4.96h-6.43v13.28c0,4.14,1.15,4.69,4.75,4.73h4.38c3.31,0,4.15-.5,5.65-2.35,1.02-1.24,1.89-3.07,2.79-5.22l.86.18Z"/>
        <path class="cls-1" d="m246.26,194.52c7.37,0,12.92,1.68,16.54,5.06,3.24,3.04,5.22,7.23,5.22,12.96,0,7.28-2.8,12.6-7.22,16.06-4.36,3.4-9.44,4.92-15.43,4.92h-16.06v-.88c4.47-.78,4.95-1.19,4.95-6.31v-24.6c0-5.17-.52-5.63-4.95-6.33v-.88h16.96Zm-5.68,30.72c.04,5.11,1.91,6.65,7.03,6.65,8.9,0,13.21-6.63,13.21-18.3,0-6.46-2.01-11.83-5.94-14.77-2.53-2.1-5.49-2.9-9.4-2.9-2.19,0-3.56.36-4.21.79-.68.46-.81,1.29-.81,3.44l.12,25.09Z"/>
        <path class="cls-1" d="m287.93,194.52c7.37,0,12.92,1.68,16.54,5.06,3.24,3.04,5.22,7.23,5.22,12.96,0,7.28-2.8,12.6-7.22,16.06-4.36,3.4-9.44,4.92-15.43,4.92h-16.06v-.88c4.47-.78,4.95-1.19,4.95-6.31v-24.6c0-5.17-.52-5.63-4.95-6.33v-.88h16.96Zm-5.68,30.72c.04,5.11,1.91,6.65,7.03,6.65,8.9,0,13.21-6.63,13.21-18.3,0-6.46-2.01-11.83-5.94-14.77-2.53-2.1-5.49-2.9-9.4-2.9-2.19,0-3.56.36-4.21.79-.68.46-.81,1.29-.81,3.44l.12,25.09Z"/>
        <path class="cls-1" d="m312.64,233.52v-.88c4.58-.8,4.95-1.26,4.95-6.51v-24.25c0-5.37-.42-5.79-4.95-6.49v-.88h16.28v.88c-4.55.74-5.01,1.08-5.01,6.49v24.21c0,5.34.38,5.72,5.01,6.55v.88h-16.28Z"/>
        <path class="cls-1" d="m373.93,195.4c-4.06.88-4.78,1.56-4.9,5.64-.06,1.75-.18,3.11-.18,8.99v24.27h-1.31l-26.94-32.67v16.01c0,5.64.08,7.42.18,9.38.2,3.87.77,4.85,6.03,5.62v.88h-13.75v-.88c4.48-.79,5.13-1.56,5.32-5.53.1-1.95.26-4.25.26-9.48v-16.43c0-1.2-.32-2.19-.92-2.95-1.52-2-2.85-2.44-5.34-2.86v-.88h10.39l24.18,28.65v-13.14c0-5.88-.14-7.19-.22-9-.2-4.07-1.37-5-6.51-5.64v-.88h13.7v.88Z"/>
        <path class="cls-1" d="m414.88,216.63c-3.31.78-3.82,1.24-3.82,4.52v5.41c0,2.18.1,4.16.46,5.78-3.52.7-9.21,2.08-13.79,2.08-13.58,0-21.34-8.09-21.34-20.1,0-13.8,10.58-20.63,22.59-20.63,5.84,0,9.97,1.08,11.57,1.18.12,2.41.3,5.97.72,9.17l-.92.2c-.93-3.82-2.58-6.98-6.69-8.26-1.81-.58-3.79-.84-6.13-.84-8.59,0-13.84,6.39-13.84,17.95,0,10.24,3.62,19.91,14.42,19.91,1.53,0,3.72-.26,4.9-.98,1.07-.62,1.69-1.39,1.69-4.43v-5.72c0-3.99-.46-4.52-5.42-5.24v-.92h15.59v.92Z"/>
        <path class="cls-1" d="m431.32,233.52v-.88c4.58-.8,4.95-1.26,4.95-6.51v-24.25c0-5.37-.42-5.79-4.95-6.49v-.88h16.28v.88c-4.55.74-5.01,1.08-5.01,6.49v24.21c0,5.34.38,5.72,5.01,6.55v.88h-16.28Z"/>
        <path class="cls-1" d="m492.61,195.4c-4.06.88-4.78,1.56-4.9,5.64-.06,1.75-.18,3.11-.18,8.99v24.27h-1.31l-26.94-32.67v16.01c0,5.64.08,7.42.18,9.38.2,3.87.77,4.85,6.03,5.62v.88h-13.75v-.88c4.48-.79,5.13-1.56,5.32-5.53.1-1.95.26-4.25.26-9.48v-16.43c0-1.2-.32-2.19-.92-2.95-1.52-2-2.85-2.44-5.34-2.86v-.88h10.39l24.18,28.65v-13.14c0-5.88-.14-7.19-.22-9-.2-4.07-1.37-5-6.51-5.64v-.88h13.7v.88Z"/>
        <path class="cls-1" d="m534.52,195.36c-4.18.62-4.74,1.58-7.17,7.32-2.17,5.21-8.08,20.02-12.55,31.74h-1.23c-3.8-10.5-9.09-24.56-11.96-32.34-2.03-5.34-2.64-6.06-6.61-6.72v-.84h16.11v.84c-4.37.78-4.38,1.71-3.51,4.27,1.23,3.72,6.5,17.82,9.25,25.14,2.17-5.42,6.42-16.91,8.83-23.52,1.59-4.36,1.34-5.11-4.3-5.89v-.84h13.15v.84Z"/>
        <path class="cls-1" d="m536.9,233.52v-.88c4.58-.8,4.95-1.26,4.95-6.51v-24.25c0-5.37-.42-5.79-4.95-6.49v-.88h16.28v.88c-4.55.74-5.01,1.08-5.01,6.49v24.21c0,5.34.38,5.72,5.01,6.55v.88h-16.28Z"/>
        <path class="cls-1" d="m590.14,203.26c-.61-2.09-.99-3.5-2.11-4.94-1.02-1.58-1.8-2.11-5.05-2.11h-5.82v30.21c0,4.93.54,5.47,5.43,6.23v.88h-16.96v-.88c4.69-.92,5.21-1.25,5.21-6.23v-30.21h-6.22c-2.85,0-3.51.81-4.35,1.94-.94,1.29-1.67,3.13-2.3,5.2h-1c.34-3.24.64-6.99.78-10.03h.76c.92,1.17,1.66,1.21,3.51,1.21h24.52c1.62,0,2.4-.18,3.37-1.21h.76c0,2.62.12,6.66.42,9.81l-.94.14Z"/>
        <path class="cls-1" d="m612.13,233.52v-.88c3.85-.79,4.2-1.39,3.25-4.18-.74-2.19-1.93-5.75-3.38-9.68h-11.36c-1.12,3.14-2.15,5.96-2.93,8.38-1.36,4.04-.73,4.54,4.26,5.48v.88h-12.85v-.88c3.75-.64,4.61-1.29,6.76-6.74l12.44-31.91,1.35-.2c3.76,10.72,7.66,21.35,11.64,32.08,2.02,5.57,2.66,5.96,6.36,6.76v.88h-15.53Zm-5.66-30.72c-1.88,5.02-3.41,9.5-5.15,14.13h10.02l-4.87-14.13Z"/>
        <path class="cls-1" d="m658.91,203.26c-.61-2.09-.99-3.5-2.11-4.94-1.02-1.58-1.8-2.11-5.05-2.11h-5.82v30.21c0,4.93.54,5.47,5.43,6.23v.88h-16.96v-.88c4.69-.92,5.21-1.25,5.21-6.23v-30.21h-6.22c-2.85,0-3.51.81-4.35,1.94-.94,1.29-1.67,3.13-2.3,5.2h-1c.34-3.24.64-6.99.78-10.03h.76c.92,1.17,1.66,1.21,3.51,1.21h24.52c1.62,0,2.4-.18,3.37-1.21h.76c0,2.62.12,6.66.42,9.81l-.94.14Z"/>
        <path class="cls-1" d="m663.75,233.52v-.88c4.58-.8,4.95-1.26,4.95-6.51v-24.25c0-5.37-.42-5.79-4.95-6.49v-.88h16.28v.88c-4.55.74-5.01,1.08-5.01,6.49v24.21c0,5.34.38,5.72,5.01,6.55v.88h-16.28Z"/>
        <path class="cls-1" d="m702.85,193.68c10.43,0,19.31,8.26,19.31,19.92,0,12.56-8.78,20.82-19.6,20.82s-19.6-8.87-19.6-19.99c0-10.47,7.44-20.74,19.89-20.74Zm-1.18,1.44c-6.26,0-11.33,6.01-11.33,17.8s5.11,20.04,13.35,20.04c6.38,0,11.09-6.08,11.09-17.7,0-12.69-5.29-20.14-13.11-20.14Z"/>
        <path class="cls-1" d="m765.78,195.4c-4.06.88-4.78,1.56-4.9,5.64-.06,1.75-.18,3.11-.18,8.99v24.27h-1.31l-26.94-32.67v16.01c0,5.64.08,7.42.18,9.38.2,3.87.77,4.85,6.03,5.62v.88h-13.75v-.88c4.48-.79,5.13-1.56,5.32-5.53.1-1.95.26-4.25.26-9.48v-16.43c0-1.2-.32-2.19-.92-2.95-1.52-2-2.85-2.44-5.34-2.86v-.88h10.39l24.18,28.65v-13.14c0-5.88-.14-7.19-.22-9-.2-4.07-1.37-5-6.51-5.64v-.88h13.7v.88Z"/>
      </g>
      <rect class="cls-1" y="214.52" width="125.5" height="1"/>
      <rect class="cls-1" x="776.5" y="214.52" width="112.5" height="1"/>
    </g>
    <g>
      <path class="cls-1" d="m207.74,11.33c0,2.81-2.81,5.2-8.44,7.15s-12.5,2.93-20.62,2.93-18.33-1.12-30.47-3.36c-6.41,3.33-12.27,8.27-17.58,14.8-5.31,6.54-11.02,15.79-17.11,27.77-6.09,11.98-10.56,19.96-13.4,23.95-2.84,3.98-6.73,7.85-11.68,11.6-13.07,9.69-26.64,14.53-40.7,14.53-7.5,0-13.63-1.59-18.4-4.77s-7.15-7.29-7.15-12.34c0-2.55.75-4.74,2.27-6.56,1.51-1.82,3.31-2.73,5.39-2.73,3.38,0,5.08,1.77,5.08,5.31,0,1.67-.52,3.1-1.56,4.3-1.04,1.2-2.32,1.8-3.83,1.8-2.45,0-3.67-1.2-3.67-3.59,0-1.25-.21-1.88-.62-1.88-.89,0-1.33,1.28-1.33,3.83,0,4.22,2.17,7.79,6.52,10.7,4.35,2.92,9.7,4.38,16.05,4.38,13.96,0,26.48-6.3,37.58-18.91,5.21-5.88,11.93-15.6,20.16-29.14,13.44-21.98,27.47-36.43,42.11-43.36-2.81-.47-7.03-1.33-12.66-2.58-13.23-2.86-23.36-4.3-30.39-4.3-.73,0-2.92.1-6.56.31,2.45,4.58,3.67,9.82,3.67,15.7,0,11.46-4.35,22.21-13.05,32.27-8.7,10.05-18,15.08-27.89,15.08-4.12,0-7.46-1.37-10.04-4.1s-3.87-6.26-3.87-10.59c0-5.94,2.25-12.51,6.76-19.73,4.5-7.21,10.34-13.52,17.5-18.91,7.16-5.39,15.01-9.15,23.55-11.29-4.11-5.57-9.97-8.36-17.57-8.36-6.4,0-12.87,1.87-19.4,5.6-6.53,3.73-12.27,8.8-17.21,15.22-.73.99-1.22,1.49-1.48,1.49-.31,0-.52-.16-.62-.47,0-.89,2.13-3.47,6.4-7.75C53.73,5.11,64.45,0,75.65,0c8.69,0,15.3,3.05,19.83,9.14,6.3-1.82,13.54-2.73,21.72-2.73,4.22,0,8.07.26,11.56.78,3.7.57,12.76,2.34,27.19,5.31,12.03-5.26,23.59-7.89,34.69-7.89s17.11,2.24,17.11,6.72Zm-110.39,11.72c0-4.17-.96-8.02-2.89-11.56-11.67,1.93-22.53,7.94-32.58,18.05-10.05,10.1-15.08,20.05-15.08,29.84,0,3.75,1.16,6.9,3.48,9.45,2.32,2.55,5.17,3.83,8.55,3.83,8.8,0,17.42-5.43,25.86-16.29s12.66-21.97,12.66-33.32Zm109.14-11.56c0-1.51-1.47-2.79-4.41-3.83-2.94-1.04-6.65-1.56-11.13-1.56-11.15,0-21.95,2.34-32.42,7.03,1.3.21,4.77.83,10.39,1.88,8.33,1.62,15.73,2.42,22.19,2.42,4.22,0,7.84-.59,10.86-1.76,3.02-1.17,4.53-2.56,4.53-4.18Z"/>
      <path class="cls-1" d="m165.04,82.62c0,.83-1.54,2.78-4.61,5.84-4.59,4.57-8.81,6.85-12.66,6.85-1.62,0-3.05-.31-4.3-.94-6.88,9.74-13.34,14.61-19.39,14.61-3.13,0-5.8-1.29-8.01-3.87-2.22-2.58-3.32-5.66-3.32-9.26,0-8.02,5.26-15.75,15.78-23.2,7.4-5.26,13.49-7.89,18.28-7.89,4.48,0,6.72,2.4,6.72,7.19,0,5.99-3.15,13.2-9.45,21.64,1.04.62,2.21.94,3.52.94,2.34,0,5.08-1.09,8.22-3.27,3.13-2.18,5.69-4.8,7.68-7.86.58-.73.99-1.09,1.25-1.09.21,0,.31.1.31.31Zm-12.7-10.51c0-4.22-1.9-6.33-5.7-6.33-4.74,0-10.52,4.53-17.34,13.59-6.82,9.06-10.23,16.69-10.23,22.89,0,3.59,1.72,5.39,5.16,5.39,5.62,0,11.77-4.63,18.44-13.91-1.51-1.67-2.27-3.38-2.27-5.16,0-2.55,1.02-5.18,3.05-7.89,2.03-2.71,4.01-4.06,5.94-4.06.83,0,1.41.52,1.72,1.56.83-1.82,1.25-3.85,1.25-6.09Z"/>
      <path class="cls-1" d="m249.33,82.7c-.05.16-.31.57-.78,1.25l-3.36,4.62c-9.8,13.61-17.05,20.42-21.74,20.42-2.45,0-4.46-.91-6.02-2.73-1.56-1.82-2.35-4.17-2.35-7.03s.99-6.07,2.97-9.45c.36-.62,2.27-3.41,5.7-8.36,4.38-6.25,6.56-10.34,6.56-12.27,0-2.13-1.07-3.2-3.2-3.2-6.88,0-18.67,14.12-35.39,42.34-1.04-.21-2.47-.31-4.3-.31-2.14,0-3.96.1-5.47.31l11.09-17.58c7.24-11.56,10.86-18.65,10.86-21.25,0-2.34-.96-3.52-2.89-3.52-2.87,0-7.55,4.12-14.06,12.34-6.51,8.23-12.97,18.23-19.38,30-1.2-.21-2.73-.31-4.61-.31-2.03,0-3.8.1-5.31.31l11.17-17.58c7.71-12.08,11.56-19.56,11.56-22.42,0-1.56-.6-2.34-1.8-2.34-2.56,0-7.85,5.59-15.89,16.76-.52.73-.94,1.09-1.25,1.09-.21-.05-.31-.21-.31-.47,0-.47,2.4-3.72,7.2-9.75,4.7-5.87,8.32-8.81,10.88-8.81,1.67,0,3.1.79,4.3,2.38,1.2,1.59,1.8,3.48,1.8,5.66,0,3.02-1.54,7.21-4.61,12.58,9.38-13.75,16.35-20.62,20.94-20.62,2.19,0,3.98.89,5.39,2.66,1.41,1.77,2.11,3.98,2.11,6.64,0,2.97-1.38,6.75-4.14,11.33,9.9-13.75,17.32-20.62,22.27-20.62,2.24,0,4.13.96,5.66,2.89,1.54,1.93,2.3,4.27,2.3,7.03,0,3.23-1.28,7.01-3.83,11.33-.05.05-2.29,3.39-6.72,10-2.55,3.75-3.83,6.62-3.83,8.59,0,2.14,1.07,3.2,3.21,3.2,4.07,0,10.8-6.57,20.18-19.72l2.42-3.36,1.41-1.72c.26-.52.52-.78.78-.78.31,0,.47.16.47.47Z"/>
      <path class="cls-1" d="m294.8,82.62c0,.83-1.54,2.78-4.61,5.84-4.59,4.57-8.81,6.85-12.66,6.85-1.62,0-3.05-.31-4.3-.94-6.88,9.74-13.34,14.61-19.39,14.61-3.13,0-5.8-1.29-8.01-3.87-2.22-2.58-3.32-5.66-3.32-9.26,0-8.02,5.26-15.75,15.78-23.2,7.4-5.26,13.49-7.89,18.28-7.89,4.48,0,6.72,2.4,6.72,7.19,0,5.99-3.15,13.2-9.45,21.64,1.04.62,2.21.94,3.52.94,2.34,0,5.08-1.09,8.22-3.27,3.13-2.18,5.69-4.8,7.68-7.86.58-.73.99-1.09,1.25-1.09.21,0,.31.1.31.31Zm-12.7-10.51c0-4.22-1.9-6.33-5.7-6.33-4.74,0-10.52,4.53-17.34,13.59-6.82,9.06-10.23,16.69-10.23,22.89,0,3.59,1.72,5.39,5.16,5.39,5.62,0,11.77-4.63,18.44-13.91-1.51-1.67-2.27-3.38-2.27-5.16,0-2.55,1.02-5.18,3.05-7.89,2.03-2.71,4.01-4.06,5.94-4.06.83,0,1.41.52,1.72,1.56.83-1.82,1.25-3.85,1.25-6.09Z"/>
      <path class="cls-1" d="m344.32,82.77c0,.78-2.87,4.34-8.6,10.69-6.36,6.97-14.65,13.26-24.87,18.88l-3.83,6.88c-7.55,13.54-15.44,23.62-23.67,30.23-8.49,6.82-15.86,10.23-22.11,10.23-2.13,0-3.92-.68-5.35-2.03-1.43-1.35-2.15-3.02-2.15-5,0-10.47,12.06-21.3,36.17-32.5,1.98-.99,4.95-2.37,8.91-4.14l1.17-.7,13.75-24.45c-5.42,7.45-9.35,12.33-11.8,14.65-2.45,2.32-4.92,3.48-7.42,3.48-2.14,0-4-.91-5.59-2.73-1.59-1.82-2.38-3.96-2.38-6.41,0-2.97,1.85-7.6,5.55-13.91l12.03-20.31c1.2.21,2.58.31,4.14.31,1.35,0,3.23-.18,5.62-.55l-15.39,25c-4.38,7.08-6.56,11.72-6.56,13.91,0,2.34,1.07,3.52,3.2,3.52,5.62,0,14.27-9.97,25.94-29.92l7.19-12.27c1.2.21,2.66.31,4.38.31,1.41,0,3.15-.18,5.23-.55-6.46,10.26-15.21,25.31-26.25,45.16,6.36-3.28,11.73-6.83,16.11-10.65,4.38-3.82,9.28-9.22,14.71-16.19.73-.94,1.2-1.41,1.41-1.41.31,0,.47.16.47.47Zm-45.12,33.87c-.83.47-3.78,1.95-8.83,4.45-23.7,11.77-35.55,22.34-35.55,31.72,0,3.91,2.19,5.86,6.56,5.86,5.52,0,11.02-3,16.48-8.98,5.47-5.99,12.24-16.48,20.31-31.48l1.02-1.56Z"/>
      <path class="cls-1" d="m399.19,82.7c0,1.1-3.81,6.15-11.42,15.18-6.15,7.41-11,11.11-14.55,11.11-2.4,0-4.36-.9-5.87-2.7-1.51-1.8-2.27-4.05-2.27-6.76s.83-5.86,2.5-9.14c-5.21,7.29-9.19,12.21-11.95,14.77-2.76,2.55-5.44,3.83-8.05,3.83-2.76,0-5.08-1.19-6.95-3.55s-2.81-5.35-2.81-8.95c0-10,7.06-18.85,21.17-26.56,6.2-3.44,11.2-5.16,15-5.16,3.23,0,4.84,1.56,4.84,4.69,0,.89-.21,2.06-.62,3.52l3.98-7.58c1.56.37,2.94.55,4.14.55,1.41,0,3.23-.18,5.47-.55l-13.83,22.89c-4.79,8.02-7.19,13.31-7.19,15.86s1.02,3.67,3.05,3.67,5.42-2.39,10.01-7.16c4.59-4.77,9.26-10.65,14-17.65.31-.52.6-.78.86-.78.31,0,.47.16.47.47Zm-21.52-12.93c0-2.55-1.17-3.83-3.52-3.83-4.79,0-11.08,4.69-18.87,14.06-7.79,9.38-11.68,16.95-11.68,22.73,0,3.39,1.51,5.08,4.53,5.08,3.59,0,9.82-5.96,18.67-17.89,7.24-9.79,10.86-16.51,10.86-20.16Z"/>
      <path class="cls-1" d="m556.58,71.48c0,9.17-2.94,16.95-8.83,23.36-5.89,6.41-13.02,9.61-21.41,9.61-3.33,0-7.29-.86-11.88-2.58-8.18,5.36-17.19,8.05-27.03,8.05-8.18,0-15.53-1.86-22.07-5.59-6.54-3.72-11.29-8.74-14.26-15.04-6.98-2.34-12.45-6.12-16.41-11.33-3.96-5.21-5.94-11.25-5.94-18.12,0-12.19,5.45-22.46,16.34-30.82s24.26-12.54,40.11-12.54c8.84,0,17.73,1.38,26.68,4.14,3.96-4.58,7.99-8.42,12.11-11.52,4.11-3.1,7.24-4.65,9.38-4.65,1.82,0,2.73.86,2.73,2.58,0,3.07-5.23,8.67-15.7,16.8,11.04,4.95,19.83,11.73,26.37,20.35,6.54,8.62,9.8,17.72,9.8,27.3Zm-45.62-49.77c-7.4-2.34-14.74-3.52-22.03-3.52-14.64,0-27.55,4.56-38.75,13.67-11.2,9.12-16.8,19.61-16.8,31.48,0,11.25,5.6,19.19,16.8,23.83-1.2-3.23-1.8-6.43-1.8-9.61,0-12.5,7.92-23.23,23.75-32.19,4.17-2.34,14.82-6.77,31.95-13.28,1.72-2.92,4.01-6.38,6.88-10.39Zm-8.28,13.12c-1.88.94-4.66,2.34-8.36,4.22-25.89,13.07-38.83,27.94-38.83,44.61,0,1.51.21,3.28.62,5.31,3.18.31,5.31.47,6.41.47,3.44,0,7.21-.55,11.33-1.64-1.62-3.02-2.42-5.99-2.42-8.91,0-6.2,2.34-12,7.03-17.42,4.69-5.42,10.73-9.32,18.12-11.72,1.2-4.01,3.23-8.98,6.09-14.92Zm7.5,65c-2.71-1.67-4.64-3.18-5.78-4.53-4.06,1.82-7.94,2.73-11.64,2.73-7.45,0-13.44-2.97-17.97-8.91-4.48,1.25-8.52,1.88-12.11,1.88-1.62,0-3.65-.16-6.09-.47,2.08,5.26,5.82,9.51,11.21,12.73,5.39,3.23,11.42,4.84,18.09,4.84,7.97,0,16.07-2.76,24.3-8.28Zm-14.06-48.36c-6.2,2.76-11.22,6.72-15.08,11.88-3.85,5.16-5.78,10.55-5.78,16.17,0,2.34.49,4.79,1.48,7.34,6.41-2.09,12.21-5.25,17.42-9.47-.62-3.18-.94-6-.94-8.46,0-5.14.96-10.96,2.89-17.46Zm7.19,42.89c-4.43-4.91-7.37-10.07-8.83-15.5-5.37,4.08-11.02,7.22-16.95,9.41,3.07,5.57,8.52,8.36,16.33,8.36,3.02,0,6.17-.76,9.45-2.27Zm12.38-43.98c-2.87-.73-5.61-1.09-8.22-1.09s-5.17.36-7.99,1.09c-1.51,5.51-2.27,12.01-2.27,19.49,0,1.82.05,3.41.16,4.77,7.93-7.23,14.04-15.32,18.32-24.26Zm13.71,19.53c0-8.75-4-15.05-11.99-18.91-5.01,9.83-11.64,18.31-19.88,25.43.68,6.68,3.13,12.4,7.36,17.15,7.04-4.33,10.65-9.42,10.8-15.27,0-1.46.52-2.19,1.57-2.19,1.19,0,1.79.62,1.79,1.88,0,2.25-1.34,5.08-4.02,8.5-2.68,3.42-5.66,6.1-8.94,8.03.73.78,2.27,2.06,4.61,3.83l.78.55c5.46-4.11,9.82-8.78,13.06-13.98,3.25-5.21,4.87-10.21,4.87-15Zm23.36-1.64c0-9.17-2.92-17.53-8.75-25.08-5.83-7.55-14.12-13.7-24.84-18.44-3.65,2.66-8.18,5.5-13.59,8.52-2.34,4.58-4.27,9.74-5.78,15.47,2.92-.52,5.48-.78,7.67-.78,3.08,0,5.98.44,8.69,1.33,1.98-4.02,3.26-7.84,3.83-11.44.21-1.46.68-2.19,1.41-2.19.68,0,1.02.42,1.02,1.25,0,2.35-1.46,6.69-4.38,13.01,9.4,4.06,14.1,11.41,14.1,22.03,0,11.35-5.39,21.02-16.17,28.98,2.76,1.09,5.57,1.64,8.44,1.64,7.76,0,14.43-3.37,20-10.12,5.57-6.74,8.36-14.8,8.36-24.18Zm-35.23-44.14c-1.72-.62-3.36-1.2-4.92-1.72-2.08,2.5-4.06,5.31-5.94,8.44,2.76-1.35,6.38-3.59,10.86-6.72Zm17.11-17.11c0-.83-.42-1.25-1.25-1.25-1.67,0-4.49,1.54-8.48,4.61-3.98,3.07-7.77,6.64-11.37,10.7l.62.31,1.64.47,2.03,1.02,1.02.31c4.06-2.81,7.71-5.87,10.94-9.18,3.23-3.31,4.84-5.64,4.84-6.99Z"/>
      <path class="cls-1" d="m761.98,25.91c0,2.71-.36,5.67-1.08,8.9-.72,3.23-1.42,4.84-2.08,4.84-.52,0-.78-.26-.78-.78,0-.16.05-.39.16-.7,1.38-3.64,2.07-7.57,2.07-11.78,0-6.56-1.95-11.82-5.86-15.8s-9.06-5.97-15.47-5.97c-8.8,0-17.71,2.84-26.72,8.51,7.71,6.14,11.56,12.8,11.56,19.99,0,6.09-2.44,11.28-7.3,15.57-4.87,4.29-11.29,6.94-19.26,7.92,5.42,3.13,8.12,7.66,8.12,13.6,0,3.96-1.38,9.98-4.14,18.06-1.82,5.32-2.73,9.49-2.73,12.51s1.12,5.77,3.37,7.93c2.24,2.16,4.98,3.24,8.22,3.24s6.5-1.11,9.47-3.32c.68-.42,1.15-.62,1.41-.62.42,0,.62.21.62.62,0,.88-1.46,1.9-4.38,3.06-2.92,1.16-5.45,1.74-7.59,1.74-5.01,0-9.21-1.99-12.6-5.98-3.39-3.99-5.08-8.93-5.08-14.81,0-4.27,1.88-11.81,5.62-22.59.94-2.76,1.41-5.11,1.41-7.04,0-2.45-1.02-4.53-3.05-6.25-3.33.31-5.23.47-5.7.47-5.16,0-7.73-.65-7.73-1.95,0-.83,1.3-1.25,3.91-1.25,3.07,0,6.15.6,9.22,1.8,6.2-.99,11.28-3.86,15.23-8.63,3.96-4.76,5.94-10.37,5.94-16.82,0-5.1-1.98-9.99-5.94-14.68l-.78-1.01c-11.41,8.54-22.19,23.44-32.34,44.69-6.15,12.87-11.77,22.14-16.88,27.82-5.1,5.68-12.27,10.81-21.48,15.39-10.89,5.31-20.6,7.97-29.14,7.97-6.98,0-12.79-1.6-17.42-4.8-4.64-3.2-6.95-7.2-6.95-11.99,0-2.66.81-4.95,2.42-6.88,1.61-1.93,3.52-2.89,5.7-2.89,3.18,0,4.77,1.77,4.77,5.31,0,1.77-.53,3.28-1.6,4.53-1.07,1.25-2.38,1.88-3.95,1.88-2.71,0-4.01-1.41-3.91-4.22.05-1.15-.05-1.72-.31-1.72-.83,0-1.25,1.38-1.25,4.14,0,4.32,2.12,7.92,6.36,10.78s9.59,4.3,16.04,4.3c11.4,0,21.73-4.22,31-12.66,4.06-3.7,7.52-7.47,10.38-11.33,3.12-4.17,9.94-14.27,20.46-30.31,5.26-7.92,11.45-15.86,18.58-23.83,7.13-7.97,13.19-13.67,18.19-17.11-8.12-6.92-20.05-10.38-35.78-10.38-21.98,0-41.09,7.94-57.34,23.83-13.33,13.02-20,25.29-20,36.8,0,5.83,1.88,10.47,5.62,13.91s8.83,5.16,15.23,5.16c10.47,0,21.29-5.03,32.46-15.08,11.17-10.05,16.76-19.82,16.76-29.3,0-7.55-3.88-11.33-11.64-11.33s-16.08,4.33-24.96,13c-8.88,8.66-13.32,16.8-13.32,24.39,0,1.87.63,3.49,1.88,4.84,1.26,1.35,2.72,2.03,4.4,2.03.89,0,1.34.23,1.34.7,0,.42-.5.62-1.49.62-2.51,0-4.63-1.13-6.35-3.4-1.73-2.26-2.59-5.03-2.59-8.31,0-8.12,4.45-16.03,13.36-23.73,8.91-7.7,18.05-11.55,27.42-11.55s13.44,4.14,13.44,12.42c0,10.1-5.7,20.31-17.11,30.62s-22.66,15.47-33.75,15.47c-7.24,0-13.03-2.17-17.38-6.52-4.35-4.35-6.52-10.17-6.52-17.46,0-14.74,8.32-28.19,24.96-40.35,16.64-12.16,35.04-18.24,55.2-18.24,15.31,0,28.18,3.41,38.59,10.23,9.53-5.93,18.75-8.9,27.66-8.9,6.98,0,12.59,2.08,16.84,6.24,4.24,4.16,6.37,9.65,6.37,16.47Z"/>
      <path class="cls-1" d="m763.85,82.7c-.05.16-.31.57-.78,1.25l-3.36,4.62c-9.8,13.61-17.29,20.42-22.45,20.42-2.45,0-4.5-.87-6.14-2.62s-2.46-3.92-2.46-6.52c0-3.02,1.8-7.6,5.39-13.75l12.19-20.7c1.61.37,2.89.55,3.83.55,1.41,0,3.38-.18,5.94-.55l-17.73,29.14c-2.55,4.22-3.83,7.47-3.83,9.77s1.23,3.52,3.68,3.52c4.64,0,12.8-8.27,24.49-24.8.26-.52.52-.78.78-.78.31,0,.47.16.47.47Zm-1.13-32.3c0,1.82-.77,3.53-2.3,5.12-1.54,1.59-3.22,2.38-5.04,2.38-2.34,0-3.52-1.17-3.52-3.52,0-1.72.81-3.37,2.42-4.96,1.61-1.59,3.31-2.38,5.08-2.38,2.24,0,3.36,1.12,3.36,3.36Z"/>
      <path class="cls-1" d="m824.33,82.7c0,1.1-3.78,6.15-11.34,15.18-6.21,7.41-11.08,11.11-14.63,11.11-2.35,0-4.32-.91-5.91-2.73s-2.39-4.06-2.39-6.72c0-2.34.48-4.52,1.45-6.52.96-2,3.48-5.98,7.54-11.91,4.22-6.25,6.33-10.23,6.33-11.95,0-2.13-1.12-3.2-3.36-3.2-7.6,0-19.32,14.12-35.16,42.34-2.55-.21-4.09-.31-4.61-.31-1.82,0-3.54.1-5.16.31l12.19-19.3c6.93-11.04,10.39-17.94,10.39-20.7,0-1.56-.65-2.34-1.96-2.34-2.66,0-7.91,5.61-15.74,16.83-.47.68-.83,1.04-1.1,1.09-.26,0-.42-.16-.47-.47.05-.26.16-.47.31-.63l1.49-1.96c7.98-10.7,13.35-16.05,16.12-16.05,1.77,0,3.29.81,4.54,2.42,1.25,1.62,1.88,3.54,1.88,5.78,0,3.33-1.95,7.97-5.86,13.91,6.15-8.49,10.87-14.3,14.18-17.42,3.31-3.12,6.37-4.69,9.18-4.69,2.29,0,4.22.94,5.78,2.81s2.34,4.19,2.34,6.95c0,3.49-2.4,8.83-7.19,16.02-4.9,7.34-7.34,12.03-7.34,14.06,0,2.14,1.07,3.2,3.21,3.2,4.64,0,12.65-8.27,24.02-24.8.26-.52.52-.78.78-.78.31,0,.47.16.47.47Z"/>
      <path class="cls-1" d="m879.14,82.7c0,1.1-3.81,6.15-11.42,15.18-6.15,7.41-11,11.11-14.55,11.11-2.4,0-4.36-.9-5.87-2.7-1.51-1.8-2.27-4.05-2.27-6.76s.83-5.86,2.5-9.14c-5.21,7.29-9.19,12.21-11.95,14.77-2.76,2.55-5.44,3.83-8.05,3.83-2.76,0-5.08-1.19-6.95-3.55s-2.81-5.35-2.81-8.95c0-10,7.06-18.85,21.17-26.56,6.2-3.44,11.2-5.16,15-5.16,3.23,0,4.84,1.56,4.84,4.69,0,.89-.21,2.06-.62,3.52l3.98-7.58c1.56.37,2.94.55,4.14.55,1.41,0,3.23-.18,5.47-.55l-13.83,22.89c-4.79,8.02-7.19,13.31-7.19,15.86s1.02,3.67,3.05,3.67,5.42-2.39,10.01-7.16c4.59-4.77,9.26-10.65,14-17.65.31-.52.6-.78.86-.78.31,0,.47.16.47.47Zm-21.52-12.93c0-2.55-1.17-3.83-3.52-3.83-4.79,0-11.08,4.69-18.87,14.06-7.79,9.38-11.68,16.95-11.68,22.73,0,3.39,1.51,5.08,4.53,5.08,3.59,0,9.82-5.96,18.67-17.89,7.24-9.79,10.86-16.51,10.86-20.16Z"/>
    </g>
    <g>
      <g>
        <path class="cls-2" d="m108.08,420.53v-1.49l.16-.15c4.89-4.45,9.94-9.07,15.01-13.75,5.15-4.74,9.08-8.55,11.69-11.31,6.91-6.55,11.53-12.27,13.77-17.03,2.23-4.75,3.36-9.9,3.36-15.3,0-6.03-1.24-10.85-3.69-14.34-2.41-3.44-5.98-5.18-10.6-5.18-3.4,0-6.61.92-9.54,2.73-2.86,1.76-4.31,3.64-4.31,5.57,0,3.26,1.65,4.78,5.18,4.78,2.89,0,5.26.88,7.06,2.62,1.8,1.74,2.72,4.03,2.72,6.8,0,3.42-1.2,6.32-3.56,8.61-2.36,2.28-5.29,3.44-8.71,3.44-4.21,0-7.77-1.24-10.56-3.7-2.81-2.47-4.24-5.76-4.24-9.78,0-4.64,1.59-8.92,4.74-12.69,3.12-3.75,6.67-6.51,10.58-8.22,3.87-1.69,7.35-2.8,10.35-3.28,2.99-.48,6.21-.72,9.59-.72,8.93,0,16.64,2.02,22.93,6.02,6.36,4.04,9.58,9.96,9.58,17.58,0,4.79-1.5,9.11-4.45,12.85-2.93,3.7-6.26,6.54-9.9,8.44-3.59,1.87-9.18,4.28-16.61,7.17-7.9,3.08-10.84,4.8-11.81,5.74,1.65-.12,3.52-.21,5.57-.27,2.41-.07,4.99-.11,7.66-.11h17.38c3.48,0,5.95-.42,7.33-1.25,1.37-.82,2.39-2,3.04-3.51.68-1.58,1.27-3.15,1.74-4.68.49-1.57.9-2.84,1.27-3.87l.12-.33h2.38l-7.23,38.62h-68.02Z"/>
        <path class="cls-1" d="m147.08,338.63c8.87,0,16.43,1.98,22.66,5.94,6.23,3.96,9.35,9.68,9.35,17.16,0,4.69-1.45,8.87-4.35,12.54-2.9,3.67-6.14,6.43-9.73,8.3-3.59,1.87-9.11,4.25-16.56,7.15-7.44,2.9-11.57,5.01-12.38,6.33v.44c1.83-.15,3.94-.26,6.33-.33,2.38-.07,4.93-.11,7.65-.11h17.38c3.59,0,6.12-.44,7.59-1.32,1.47-.88,2.55-2.13,3.25-3.74.7-1.61,1.28-3.19,1.76-4.73.48-1.54.9-2.82,1.27-3.85h1.43l-7.04,37.62h-67.1v-.77c4.84-4.4,9.85-8.98,15.02-13.75,5.17-4.77,9.08-8.54,11.71-11.33,6.97-6.6,11.59-12.32,13.86-17.16,2.27-4.84,3.41-10.01,3.41-15.51,0-6.16-1.26-11.04-3.78-14.63-2.52-3.59-6.19-5.39-11.01-5.39-3.51,0-6.78.94-9.81,2.81-3.03,1.87-4.55,3.87-4.55,5.99,0,3.52,1.89,5.28,5.68,5.28,2.77,0,5,.83,6.71,2.48,1.71,1.65,2.57,3.79,2.57,6.44,0,3.3-1.14,6.05-3.41,8.25-2.27,2.2-5.06,3.3-8.36,3.3-4.11,0-7.52-1.19-10.23-3.58-2.71-2.38-4.07-5.52-4.07-9.4,0-4.55,1.54-8.67,4.62-12.38,3.08-3.7,6.54-6.4,10.4-8.08,3.85-1.69,7.26-2.77,10.23-3.25,2.97-.48,6.14-.71,9.51-.71m0-1c-3.41,0-6.66.24-9.67.73-3.04.49-6.57,1.61-10.47,3.32-3.98,1.74-7.6,4.56-10.76,8.36-3.22,3.87-4.85,8.25-4.85,13.01,0,4.17,1.48,7.59,4.41,10.16,2.89,2.54,6.55,3.82,10.89,3.82,3.55,0,6.6-1.21,9.06-3.58,2.47-2.39,3.71-5.4,3.71-8.97,0-2.91-.97-5.32-2.87-7.15-1.9-1.83-4.39-2.76-7.41-2.76-3.24,0-4.68-1.32-4.68-4.28,0-1.75,1.37-3.48,4.07-5.14,2.86-1.76,5.98-2.66,9.28-2.66,4.52,0,7.85,1.62,10.2,4.96,2.39,3.41,3.6,8.13,3.6,14.06,0,5.32-1.12,10.4-3.31,15.09-2.21,4.7-6.8,10.38-13.64,16.86l-.02.02-.02.02c-2.6,2.75-6.53,6.55-11.67,11.28-5.07,4.68-10.12,9.3-15.01,13.75l-.33.3v2.21h68.93l.15-.82,7.04-37.62.22-1.18h-3.34l-.24.66c-.37,1.04-.79,2.31-1.28,3.89-.47,1.51-1.05,3.06-1.72,4.63-.62,1.43-1.55,2.5-2.84,3.28-1.3.78-3.68,1.18-7.07,1.18h-17.38c-2.68,0-5.26.04-7.68.11-1.38.04-2.67.1-3.88.17,1.54-.94,4.53-2.42,10.32-4.67,7.44-2.9,13.04-5.32,16.65-7.19,3.7-1.93,7.09-4.81,10.06-8.57,3.03-3.83,4.56-8.26,4.56-13.16,0-7.81-3.3-13.87-9.81-18-6.37-4.04-14.17-6.1-23.2-6.1h0Z"/>
      </g>
      <g>
        <path class="cls-2" d="m228.91,421.85c-11.77,0-21.19-4.51-28.01-13.4-6.78-8.85-10.22-18.42-10.22-28.46,0-10.71,3.7-20.46,11.01-28.98,7.32-8.55,16.48-12.88,27.22-12.88s20.36,4.41,27.5,13.11c7.12,8.67,10.73,18.34,10.73,28.75s-3.59,20.45-10.68,28.97c-7.11,8.55-16.38,12.89-27.55,12.89Zm0-80.63c-2.28,0-4.05.79-5.39,2.4-1.37,1.65-2.31,4.21-2.81,7.62-.51,3.5-.92,7.93-1.21,13.16-.29,5.24-.44,10.49-.44,15.59,0,5.64.13,10.79.38,15.32.26,4.56.68,8.89,1.26,12.88.57,3.93,1.48,6.72,2.7,8.29,1.19,1.54,2.99,2.28,5.49,2.28,2.29,0,4.05-.79,5.39-2.4,1.36-1.64,2.29-4.18,2.75-7.56.47-3.47.88-8,1.21-13.49.33-5.49.49-10.64.49-15.32,0-6.05-.11-11.3-.33-15.59-.22-4.28-.64-8.5-1.26-12.54-.61-3.97-1.54-6.77-2.76-8.35-1.19-1.54-2.99-2.28-5.49-2.28Z"/>
        <path class="cls-1" d="m228.91,338.63c11,0,20.04,4.31,27.12,12.92,7.08,8.62,10.62,18.1,10.62,28.44s-3.52,20.19-10.56,28.66c-7.04,8.47-16.1,12.7-27.17,12.7-11.66,0-20.86-4.4-27.61-13.2-6.75-8.8-10.12-18.19-10.12-28.16,0-10.63,3.63-20.19,10.89-28.65,7.26-8.47,16.21-12.71,26.84-12.71m0,80.63c2.42,0,4.35-.86,5.78-2.58,1.43-1.72,2.38-4.33,2.86-7.81.48-3.48.88-7.99,1.21-13.53.33-5.54.49-10.65.49-15.35,0-6.09-.11-11.29-.33-15.62-.22-4.33-.64-8.52-1.27-12.59-.62-4.07-1.58-6.93-2.86-8.58-1.28-1.65-3.25-2.48-5.89-2.48-2.42,0-4.34.86-5.77,2.58-1.43,1.72-2.4,4.35-2.92,7.87-.51,3.52-.92,7.92-1.21,13.2-.29,5.28-.44,10.49-.44,15.62,0,5.65.13,10.76.38,15.35.26,4.58.68,8.89,1.27,12.92.59,4.03,1.52,6.88,2.8,8.52,1.28,1.65,3.25,2.48,5.88,2.48m0-81.63c-10.89,0-20.17,4.39-27.6,13.05-7.39,8.62-11.13,18.48-11.13,29.31,0,10.15,3.47,19.83,10.33,28.77,6.91,9.02,16.47,13.59,28.4,13.59s20.73-4.4,27.94-13.07c7.16-8.62,10.79-18.47,10.79-29.29s-3.65-20.31-10.84-29.07c-7.24-8.82-16.63-13.29-27.89-13.29h0Zm0,80.63c-2.34,0-4-.68-5.1-2.09-1.17-1.5-2.05-4.21-2.6-8.05-.58-3.97-1-8.29-1.26-12.84-.25-4.52-.38-9.66-.38-15.29,0-5.1.15-10.33.44-15.56.29-5.21.69-9.63,1.2-13.11.48-3.32,1.39-5.8,2.7-7.37,1.24-1.5,2.88-2.22,5-2.22,2.34,0,4,.68,5.1,2.09,1.17,1.51,2.06,4.24,2.66,8.12.62,4.03,1.04,8.23,1.26,12.49.22,4.28.33,9.52.33,15.57,0,4.66-.17,9.81-.49,15.29-.33,5.47-.73,10-1.2,13.45-.45,3.28-1.34,5.74-2.64,7.31-1.24,1.5-2.88,2.22-5.01,2.22h0Z"/>
      </g>
      <g>
        <path class="cls-2" d="m271.86,420.53v-1.49l.16-.15c4.89-4.45,9.94-9.07,15.01-13.75,5.15-4.74,9.08-8.55,11.69-11.31,6.91-6.55,11.53-12.27,13.77-17.03,2.23-4.75,3.36-9.9,3.36-15.3,0-6.03-1.24-10.85-3.69-14.34-2.41-3.44-5.98-5.18-10.6-5.18-3.4,0-6.61.92-9.54,2.73-2.86,1.76-4.31,3.64-4.31,5.57,0,3.26,1.65,4.78,5.18,4.78,2.89,0,5.26.88,7.06,2.62,1.8,1.74,2.72,4.03,2.72,6.8,0,3.42-1.2,6.32-3.56,8.61-2.36,2.28-5.29,3.44-8.71,3.44-4.21,0-7.77-1.24-10.56-3.7-2.81-2.47-4.24-5.76-4.24-9.78,0-4.64,1.59-8.92,4.74-12.69,3.12-3.75,6.67-6.51,10.58-8.22,3.87-1.69,7.35-2.8,10.35-3.28,2.99-.48,6.21-.72,9.59-.72,8.93,0,16.64,2.02,22.93,6.02,6.36,4.04,9.58,9.96,9.58,17.58,0,4.79-1.5,9.11-4.45,12.85-2.93,3.7-6.26,6.54-9.9,8.44-3.59,1.87-9.18,4.28-16.61,7.17-7.9,3.08-10.84,4.8-11.81,5.74,1.65-.12,3.52-.21,5.57-.27,2.41-.07,4.99-.11,7.66-.11h17.38c3.48,0,5.95-.42,7.33-1.25,1.37-.82,2.39-2,3.04-3.51.68-1.58,1.27-3.15,1.74-4.68.49-1.57.9-2.84,1.27-3.87l.12-.33h2.38l-7.23,38.62h-68.02Z"/>
        <path class="cls-1" d="m310.86,338.63c8.87,0,16.43,1.98,22.66,5.94,6.23,3.96,9.35,9.68,9.35,17.16,0,4.69-1.45,8.87-4.35,12.54-2.9,3.67-6.14,6.43-9.73,8.3-3.59,1.87-9.11,4.25-16.56,7.15-7.44,2.9-11.57,5.01-12.38,6.33v.44c1.83-.15,3.94-.26,6.33-.33,2.38-.07,4.93-.11,7.65-.11h17.38c3.59,0,6.12-.44,7.59-1.32,1.47-.88,2.55-2.13,3.25-3.74.7-1.61,1.28-3.19,1.76-4.73.48-1.54.9-2.82,1.27-3.85h1.43l-7.04,37.62h-67.1v-.77c4.84-4.4,9.85-8.98,15.02-13.75,5.17-4.77,9.08-8.54,11.71-11.33,6.97-6.6,11.59-12.32,13.86-17.16,2.27-4.84,3.41-10.01,3.41-15.51,0-6.16-1.26-11.04-3.78-14.63-2.52-3.59-6.19-5.39-11.01-5.39-3.51,0-6.78.94-9.81,2.81-3.03,1.87-4.55,3.87-4.55,5.99,0,3.52,1.89,5.28,5.68,5.28,2.77,0,5,.83,6.71,2.48,1.71,1.65,2.57,3.79,2.57,6.44,0,3.3-1.14,6.05-3.41,8.25-2.27,2.2-5.06,3.3-8.36,3.3-4.11,0-7.52-1.19-10.23-3.58-2.71-2.38-4.07-5.52-4.07-9.4,0-4.55,1.54-8.67,4.62-12.38,3.08-3.7,6.54-6.4,10.4-8.08,3.85-1.69,7.26-2.77,10.23-3.25,2.97-.48,6.14-.71,9.51-.71m0-1c-3.41,0-6.66.24-9.67.73-3.04.49-6.57,1.61-10.47,3.32-3.98,1.74-7.6,4.56-10.76,8.36-3.22,3.87-4.85,8.25-4.85,13.01,0,4.17,1.48,7.59,4.41,10.16,2.89,2.54,6.55,3.82,10.89,3.82,3.55,0,6.6-1.21,9.06-3.58,2.47-2.39,3.71-5.4,3.71-8.97,0-2.91-.97-5.32-2.87-7.15-1.9-1.83-4.39-2.76-7.41-2.76-3.24,0-4.68-1.32-4.68-4.28,0-1.75,1.37-3.48,4.07-5.14,2.86-1.76,5.98-2.66,9.28-2.66,4.52,0,7.85,1.62,10.19,4.96,2.39,3.41,3.6,8.13,3.6,14.06,0,5.32-1.12,10.4-3.31,15.09-2.21,4.7-6.8,10.38-13.64,16.86l-.02.02-.02.02c-2.6,2.75-6.53,6.55-11.67,11.28-5.07,4.68-10.12,9.3-15.01,13.75l-.33.3v2.21h68.93l.15-.82,7.04-37.62.22-1.18h-3.34l-.24.66c-.37,1.04-.79,2.31-1.28,3.89-.47,1.51-1.05,3.06-1.72,4.63-.62,1.43-1.55,2.5-2.84,3.28-1.3.78-3.68,1.18-7.07,1.18h-17.38c-2.68,0-5.26.04-7.68.11-1.38.04-2.67.1-3.88.17,1.54-.94,4.53-2.42,10.32-4.67,7.44-2.9,13.04-5.32,16.65-7.19,3.7-1.93,7.09-4.81,10.06-8.57,3.03-3.83,4.56-8.26,4.56-13.16,0-7.81-3.3-13.87-9.81-18-6.37-4.04-14.17-6.1-23.2-6.1h0Z"/>
      </g>
      <g>
        <path class="cls-2" d="m390.5,421.85c-5.99,0-11.31-1.2-15.8-3.58-4.48-2.37-8.32-5.58-11.43-9.54-3.11-3.96-5.38-8.42-6.74-13.26-1.36-4.82-2.05-10.03-2.05-15.48,0-11.37,3.73-21.29,11.07-29.48,7.36-8.21,17.46-12.38,30.02-12.38,7.53,0,14.1,1.5,19.54,4.46,5.54,3.01,8.35,7.16,8.35,12.32,0,3.15-1.21,5.73-3.6,7.65-2.35,1.9-5.23,2.86-8.56,2.86-3.93,0-7.33-1.4-10.09-4.16-2.76-2.76-4.16-6.27-4.16-10.42,0-1.23.21-2.42.64-3.53.39-1.04.8-2.12,1.23-3.27-.02-.98-.32-1.68-.91-2.16-.64-.51-1.87-.77-3.65-.77-2.08,0-3.85.76-5.42,2.33-1.57,1.58-2.79,4.25-3.6,7.95-.83,3.77-1.48,7.69-1.92,11.66-.39,3.58-.61,7.07-.65,10.4,1.13-2.01,2.91-3.56,5.28-4.64,2.73-1.23,5.96-1.86,9.61-1.86,8.01,0,14.71,2.37,19.91,7.06,5.22,4.7,7.87,10.82,7.87,18.19,0,8.63-3.45,15.81-10.25,21.34-6.77,5.51-15.07,8.31-24.68,8.31Zm-.22-50.16c-2.05,0-3.65.78-4.88,2.39-1.27,1.65-2.03,3.21-2.27,4.62-.25,1.47-.42,3.65-.49,6.47-.07,2.82-.11,5.74-.11,8.68v1.43c0,3.57.26,7.51.77,11.71.5,4.17,1.29,7.23,2.36,9.11,1.01,1.79,2.63,2.66,4.95,2.66s4.13-.93,5.29-2.84c1.19-1.96,1.8-4.99,1.8-8.98,0-1.2.07-3.28.22-6.19.15-2.97.22-4.76.22-5.47,0-1.82-.06-3.62-.16-5.36-.11-1.74-.28-3.7-.49-5.81,0-3.69-.61-6.72-1.82-9.06-1.17-2.26-2.93-3.36-5.39-3.36Z"/>
        <path class="cls-1" d="m395.56,338.63c7.48,0,13.92,1.47,19.3,4.4,5.39,2.93,8.08,6.89,8.08,11.88,0,3.01-1.14,5.43-3.41,7.26-2.27,1.83-5.02,2.75-8.25,2.75-3.81,0-7.06-1.34-9.73-4.02-2.68-2.68-4.02-6.03-4.02-10.06,0-1.17.2-2.29.61-3.35.4-1.06.83-2.18,1.26-3.35,0-1.17-.37-2.05-1.1-2.64-.73-.59-2.05-.88-3.96-.88-2.2,0-4.12.82-5.78,2.48-1.65,1.65-2.9,4.38-3.74,8.19-.84,3.81-1.49,7.72-1.93,11.71-.44,4-.66,7.83-.66,11.5l.44.22c1.03-2.42,2.88-4.24,5.55-5.45,2.68-1.21,5.81-1.81,9.41-1.81,7.92,0,14.45,2.31,19.58,6.93,5.13,4.62,7.7,10.56,7.7,17.82,0,8.51-3.36,15.49-10.07,20.96-6.71,5.46-14.83,8.19-24.36,8.19-5.94,0-11.13-1.17-15.57-3.52-4.44-2.35-8.2-5.48-11.28-9.4-3.08-3.92-5.3-8.29-6.65-13.09-1.36-4.8-2.04-9.92-2.04-15.35,0-11.29,3.65-21.01,10.94-29.15s17.18-12.21,29.65-12.21m-4.95,80.63c2.57,0,4.47-1.03,5.72-3.08,1.25-2.05,1.87-5.13,1.87-9.24,0-1.17.07-3.23.22-6.16.15-2.93.22-4.77.22-5.5,0-1.83-.05-3.63-.17-5.39-.11-1.76-.28-3.7-.5-5.83,0-3.74-.62-6.82-1.87-9.24-1.25-2.42-3.19-3.63-5.83-3.63-2.2,0-3.96.86-5.28,2.58-1.32,1.72-2.11,3.34-2.37,4.84-.26,1.5-.42,3.69-.5,6.54-.07,2.86-.11,5.76-.11,8.69v1.43c0,3.59.26,7.52.77,11.77.51,4.25,1.32,7.35,2.42,9.29,1.1,1.94,2.9,2.92,5.39,2.92m4.95-81.63c-12.7,0-22.93,4.22-30.39,12.54-7.43,8.29-11.2,18.32-11.2,29.82,0,5.5.7,10.75,2.07,15.62,1.38,4.91,3.68,9.43,6.83,13.44,3.15,4.02,7.05,7.27,11.59,9.67,4.56,2.41,9.96,3.64,16.03,3.64,9.73,0,18.13-2.83,25-8.42,6.92-5.64,10.43-12.95,10.43-21.73,0-7.52-2.7-13.77-8.03-18.56-5.3-4.77-12.11-7.19-20.25-7.19-3.72,0-7.02.64-9.82,1.9-1.88.85-3.4,1.99-4.54,3.41.08-2.79.29-5.7.61-8.66.44-3.95,1.08-7.86,1.91-11.61.8-3.61,1.96-6.2,3.47-7.7,1.47-1.47,3.13-2.18,5.07-2.18,2.18,0,3.03.41,3.34.66.45.36.69.92.72,1.69-.42,1.11-.82,2.17-1.2,3.17-.44,1.17-.67,2.42-.67,3.71,0,4.29,1.45,7.91,4.31,10.77,2.86,2.86,6.37,4.31,10.44,4.31,3.45,0,6.43-1,8.88-2.97,2.51-2.02,3.78-4.73,3.78-8.04,0-5.36-2.9-9.65-8.61-12.76-5.52-3-12.17-4.52-19.78-4.52h0Zm-4.95,80.63c-2.12,0-3.6-.79-4.52-2.41-1.03-1.82-1.8-4.82-2.3-8.92-.51-4.19-.76-8.1-.76-11.65v-1.43c0-2.94.04-5.85.11-8.66.07-2.8.23-4.95.48-6.4.23-1.33.96-2.81,2.17-4.4,1.13-1.48,2.6-2.19,4.49-2.19,2.25,0,3.87,1.01,4.94,3.09,1.17,2.27,1.76,5.22,1.76,8.78v.1c.22,2.11.39,4.05.5,5.79.11,1.73.16,3.52.16,5.33,0,.71-.07,2.49-.22,5.45-.15,2.91-.22,5-.22,6.21,0,3.9-.58,6.84-1.72,8.72-1.06,1.75-2.65,2.6-4.86,2.6h0Z"/>
      </g>
      <g>
        <path class="cls-2" d="m439.02,421.13c-2.17,0-4.06-.75-5.6-2.24-1.54-1.49-2.33-3.35-2.33-5.53s.78-3.97,2.33-5.46c1.54-1.49,3.42-2.24,5.6-2.24s4.06.74,5.63,2.2c1.57,1.47,2.37,3.32,2.37,5.5s-.78,4.04-2.33,5.53c-1.54,1.49-3.45,2.24-5.67,2.24Z"/>
        <path class="cls-1" d="m439.02,406.15c2.05,0,3.81.69,5.29,2.06,1.47,1.38,2.21,3.09,2.21,5.14s-.73,3.78-2.17,5.17c-1.45,1.4-3.22,2.1-5.33,2.1s-3.8-.7-5.25-2.1c-1.45-1.4-2.17-3.12-2.17-5.17s.72-3.7,2.17-5.1c1.45-1.4,3.2-2.1,5.25-2.1m0-1c-2.31,0-4.31.8-5.94,2.38-1.65,1.59-2.48,3.55-2.48,5.82s.83,4.31,2.48,5.89c1.64,1.58,3.64,2.38,5.94,2.38s4.38-.8,6.02-2.38c1.65-1.59,2.48-3.57,2.48-5.89s-.85-4.3-2.53-5.87c-1.66-1.55-3.67-2.33-5.97-2.33h0Z"/>
      </g>
      <g>
        <path class="cls-2" d="m453.83,420.53v-3.88h.5c1.35,0,2.7-.03,4.03-.09,1.37-.06,3.72-.3,6.98-.72,3.16-.4,5.42-1.32,6.72-2.72,1.3-1.41,2.13-4.01,2.48-7.72l.36-8.25v-84.58s-.36-8.26-.36-8.26c-.35-3.57-1.19-6.24-2.5-7.9-1.29-1.63-3.24-2.62-5.79-2.96-2.68-.36-5.42-.63-8.16-.81-2.81-.18-4.75-.33-5.96-.45l-.45-.05v-3.83h68.5v109.22l.36,8.26c.35,3.8,1.17,6.39,2.46,7.68,1.29,1.3,3.04,2.1,5.2,2.38,2.25.3,4.21.48,5.8.54,1.62.06,3.4.15,5.32.27l.47.03v3.85h-85.96Z"/>
        <path class="cls-1" d="m519.67,288.81v108.72l.36,8.28c.36,3.96,1.23,6.63,2.61,8.01,1.38,1.38,3.21,2.22,5.49,2.52,2.28.3,4.23.48,5.85.54,1.62.06,3.39.15,5.31.27v2.88h-84.96v-2.88c1.32,0,2.67-.03,4.05-.09,1.38-.06,3.72-.3,7.02-.72,3.3-.42,5.64-1.38,7.02-2.88,1.38-1.5,2.25-4.17,2.61-8.01l.36-8.28v-84.6l-.36-8.28c-.36-3.72-1.23-6.45-2.61-8.19-1.38-1.74-3.42-2.79-6.12-3.15s-5.43-.63-8.19-.81c-2.76-.18-4.74-.33-5.94-.45v-2.88h67.5m1-1h-69.5v4.78l.9.09c1.21.12,3.16.27,5.97.45,2.72.18,5.46.45,8.12.8,2.45.33,4.24,1.24,5.47,2.78,1.25,1.58,2.05,4.15,2.4,7.64l.36,8.25v84.56s-.36,8.21-.36,8.21c-.34,3.58-1.13,6.08-2.35,7.4-1.21,1.32-3.37,2.18-6.41,2.56-3.25.42-5.58.65-6.94.71-1.32.06-2.67.09-4.01.09h-1v4.88h86.96v-4.82l-.94-.06c-1.91-.12-3.71-.21-5.33-.27-1.58-.06-3.52-.24-5.76-.53-2.05-.27-3.7-1.02-4.91-2.24-1.2-1.2-1.99-3.69-2.32-7.39l-.36-8.23v-108.68s0-1,0-1h0Z"/>
      </g>
      <g>
        <path class="cls-2" d="m554.27,421.13c-2.17,0-4.06-.75-5.6-2.24-1.54-1.49-2.33-3.35-2.33-5.53s.78-3.97,2.33-5.46c1.54-1.49,3.42-2.24,5.6-2.24s4.06.74,5.63,2.2c1.57,1.47,2.37,3.32,2.37,5.5s-.78,4.04-2.33,5.53c-1.54,1.49-3.45,2.24-5.67,2.24Z"/>
        <path class="cls-1" d="m554.27,406.15c2.05,0,3.81.69,5.29,2.06,1.47,1.38,2.21,3.09,2.21,5.14s-.73,3.78-2.17,5.17c-1.45,1.4-3.22,2.1-5.33,2.1s-3.8-.7-5.25-2.1c-1.45-1.4-2.17-3.12-2.17-5.17s.72-3.7,2.17-5.1c1.45-1.4,3.2-2.1,5.25-2.1m0-1c-2.31,0-4.31.8-5.94,2.38-1.65,1.59-2.48,3.55-2.48,5.82s.83,4.31,2.48,5.89c1.64,1.58,3.64,2.38,5.94,2.38s4.38-.8,6.02-2.38c1.65-1.59,2.48-3.57,2.48-5.89s-.85-4.3-2.53-5.87c-1.66-1.55-3.67-2.33-5.97-2.33h0Z"/>
      </g>
      <g>
        <path class="cls-2" d="m569.09,420.53v-3.88h.5c1.35,0,2.7-.03,4.03-.09,1.37-.06,3.72-.3,6.98-.72,3.16-.4,5.42-1.32,6.72-2.72,1.3-1.41,2.13-4.01,2.48-7.72l.36-8.25v-84.58s-.36-8.26-.36-8.26c-.35-3.57-1.19-6.24-2.5-7.9-1.29-1.63-3.24-2.62-5.79-2.96-2.68-.36-5.42-.63-8.16-.81-2.81-.18-4.75-.33-5.96-.45l-.45-.05v-3.83h68.5v109.22l.36,8.26c.35,3.8,1.17,6.39,2.46,7.68,1.29,1.3,3.04,2.1,5.2,2.38,2.25.3,4.21.48,5.8.54,1.62.06,3.4.15,5.32.27l.47.03v3.85h-85.96Z"/>
        <path class="cls-1" d="m634.93,288.81v108.72l.36,8.28c.36,3.96,1.23,6.63,2.61,8.01,1.38,1.38,3.21,2.22,5.49,2.52,2.28.3,4.23.48,5.85.54,1.62.06,3.39.15,5.31.27v2.88h-84.96v-2.88c1.32,0,2.67-.03,4.05-.09,1.38-.06,3.72-.3,7.02-.72,3.3-.42,5.64-1.38,7.02-2.88,1.38-1.5,2.25-4.17,2.61-8.01l.36-8.28v-84.6l-.36-8.28c-.36-3.72-1.23-6.45-2.61-8.19-1.38-1.74-3.42-2.79-6.12-3.15s-5.43-.63-8.19-.81c-2.76-.18-4.74-.33-5.94-.45v-2.88h67.5m1-1h-69.5v4.78l.9.09c1.21.12,3.16.27,5.97.45,2.72.18,5.46.45,8.12.8,2.45.33,4.24,1.24,5.47,2.78,1.25,1.58,2.05,4.15,2.4,7.64l.36,8.25v84.56s-.36,8.21-.36,8.21c-.34,3.58-1.13,6.08-2.35,7.4-1.21,1.32-3.37,2.18-6.41,2.56-3.25.42-5.58.65-6.94.71-1.32.06-2.67.09-4.01.09h-1v4.88h86.96v-4.82l-.94-.06c-1.91-.12-3.71-.21-5.33-.27-1.58-.06-3.52-.24-5.76-.53-2.05-.27-3.7-1.02-4.91-2.24-1.2-1.2-1.99-3.69-2.32-7.39l-.36-8.23v-108.68s0-1,0-1h0Z"/>
      </g>
      <g>
        <path class="cls-2" d="m719.35,422.69c-6.49,0-12.77-.79-18.67-2.36-5.9-1.56-13.19-5.16-21.66-10.68-8.57-5.59-12.92-14.27-12.92-25.8,0-6.35,2.08-11.59,6.18-15.57,3.99-3.87,9.11-6.17,15.24-6.84v-.19c-5.46-3.96-9.62-8.69-12.37-14.07-2.78-5.44-4.19-11.76-4.19-18.77,0-8.23,2.37-15.54,7.03-21.72,4.64-6.15,10.91-11.14,18.63-14.82,7.71-3.68,16.93-5.54,27.4-5.54,12.89,0,23.83,3.21,32.51,9.55,8.74,6.37,13.17,14.77,13.17,24.97,0,5.02-1.49,9.36-4.43,12.92-2.87,3.46-7,5.97-12.31,7.44v.05c6.4,3.61,11.88,8.51,16.28,14.58,4.48,6.18,6.76,13.19,6.76,20.81,0,13.9-5.55,25.18-16.49,33.52-10.9,8.31-24.42,12.52-40.17,12.52Zm-28.58-59.35c-3.28,1.87-5.93,4.78-7.87,8.67-2,3.99-3.01,9-3.01,14.9,0,8.8,3.69,16.3,10.98,22.29,7.31,6.02,16.77,9.07,28.12,9.07,6.59,0,12.46-1.67,17.46-4.96,4.93-3.25,7.42-7.89,7.42-13.8,0-5.38-1.36-9.85-4.03-13.28-2.69-3.45-8.95-7.15-18.6-11-9.74-3.88-19.99-7.88-30.46-11.88Zm34.7-72.41c-5.85,0-10.77,1.66-14.62,4.92-3.82,3.25-5.76,7.54-5.76,12.76s1.77,9.42,5.25,12.78c3.54,3.42,7.09,5.9,10.56,7.37,3.49,1.48,8.6,3.36,15.17,5.57,6.34,2.13,10.8,3.82,13.28,5.02,3.04-2.43,5.42-5.48,7.08-9.07,1.7-3.7,2.56-7.9,2.56-12.48,0-8.32-3.05-14.94-9.08-19.68-6.06-4.77-14.29-7.18-24.44-7.18Z"/>
        <path class="cls-1" d="m724.03,286.83c12.84,0,23.58,3.15,32.22,9.45,8.64,6.3,12.96,14.49,12.96,24.57,0,4.92-1.44,9.12-4.32,12.6-2.88,3.48-7.02,5.94-12.42,7.38v.72c6.48,3.6,11.94,8.46,16.38,14.58,4.44,6.12,6.66,12.96,6.66,20.52,0,13.8-5.43,24.84-16.29,33.12-10.86,8.28-24.15,12.42-39.87,12.42-6.48,0-12.66-.78-18.54-2.34-5.88-1.56-13.05-5.1-21.51-10.62-8.46-5.52-12.69-13.98-12.69-25.38,0-6.24,2.01-11.31,6.03-15.21,4.02-3.9,9.15-6.15,15.39-6.75v-.9c-5.52-3.96-9.66-8.64-12.42-14.04-2.76-5.4-4.14-11.58-4.14-18.54,0-8.16,2.31-15.3,6.93-21.42,4.62-6.12,10.77-11.01,18.45-14.67,7.68-3.66,16.74-5.49,27.18-5.49m25.38,53.1c3.24-2.52,5.73-5.67,7.47-9.45,1.74-3.78,2.61-8.01,2.61-12.69,0-8.52-3.09-15.21-9.27-20.07-6.18-4.86-14.43-7.29-24.75-7.29-6,0-10.98,1.68-14.94,5.04-3.96,3.36-5.94,7.74-5.94,13.14s1.8,9.66,5.4,13.14c3.6,3.48,7.17,5.97,10.71,7.47,3.54,1.5,8.61,3.36,15.21,5.58,6.6,2.22,11.1,3.93,13.5,5.13m-30.42,78.84c6.72,0,12.63-1.68,17.73-5.04,5.1-3.36,7.65-8.1,7.65-14.22,0-5.52-1.38-10.05-4.14-13.59-2.76-3.54-9.03-7.26-18.81-11.16-9.78-3.9-20.01-7.89-30.69-11.97-3.48,1.92-6.24,4.92-8.28,9-2.04,4.08-3.06,9.12-3.06,15.12,0,9,3.72,16.56,11.16,22.68,7.44,6.12,16.92,9.18,28.44,9.18m5.04-132.94c-10.54,0-19.83,1.88-27.61,5.59-7.8,3.72-14.13,8.75-18.82,14.97-4.73,6.27-7.13,13.68-7.13,22.02,0,7.09,1.43,13.48,4.25,19,2.65,5.19,6.59,9.78,11.73,13.67-5.79.82-10.67,3.12-14.51,6.85-4.2,4.08-6.33,9.43-6.33,15.93,0,11.71,4.42,20.53,13.14,26.22,8.51,5.56,15.85,9.17,21.8,10.75,5.94,1.57,12.27,2.37,18.8,2.37,15.87,0,29.49-4.25,40.48-12.62,11.07-8.44,16.68-19.85,16.68-33.92,0-7.74-2.3-14.84-6.85-21.11-4.23-5.82-9.43-10.58-15.48-14.17,4.89-1.53,8.75-3.98,11.48-7.29,3.02-3.65,4.55-8.1,4.55-13.24,0-10.37-4.5-18.91-13.37-25.38-8.77-6.4-19.81-9.64-32.81-9.64h0Zm25.25,52.93c-2.55-1.2-6.93-2.84-13.05-4.9-6.56-2.21-11.66-4.08-15.14-5.55-3.41-1.44-6.91-3.89-10.41-7.27-3.43-3.31-5.09-7.38-5.09-12.42s1.83-9.19,5.59-12.38c3.76-3.19,8.57-4.8,14.29-4.8,10.04,0,18.16,2.38,24.13,7.08,5.9,4.64,8.89,11.13,8.89,19.28,0,4.51-.85,8.64-2.52,12.27-1.58,3.43-3.83,6.35-6.69,8.69h0Zm-30.29,79.01c-11.23,0-20.58-3.01-27.8-8.95-7.16-5.89-10.8-13.26-10.8-21.91,0-5.82.99-10.76,2.95-14.67,1.86-3.72,4.37-6.52,7.47-8.34,10.39,3.97,20.56,7.94,30.23,11.8,9.56,3.81,15.75,7.46,18.39,10.85,2.61,3.35,3.93,7.71,3.93,12.97,0,5.82-2.35,10.19-7.2,13.39-4.91,3.23-10.69,4.88-17.18,4.88h0Z"/>
      </g>
      <path class="cls-1" d="m75.02,492.52l.07,1.75c.07.84.25,1.4.53,1.69.28.29.66.47,1.12.53.47.06.87.1,1.2.11.33.01.69.03,1.09.06v.61h-17.4v-.61c.27,0,.55,0,.83-.02.28-.01.76-.06,1.44-.15s1.16-.29,1.44-.61c.28-.32.46-.88.54-1.69l.07-1.75v-17.86l-.07-1.75c-.07-.78-.25-1.36-.54-1.73-.28-.37-.7-.59-1.25-.67-.55-.08-1.11-.13-1.68-.17-.57-.04-.97-.07-1.22-.1v-.61h13.82v22.95Z"/>
      <path class="cls-1" d="m97.06,481.58c2.53,0,4.53.65,6.01,1.94,1.47,1.3,2.21,3.05,2.21,5.26,0,2.97-1.5,5.21-4.51,6.7-3.01,1.5-6.38,2.25-10.12,2.25-2.53,0-4.82-.65-6.86-1.94s-3.06-2.9-3.06-4.83c0-1.44.48-2.65,1.44-3.61.96-.96,2.14-1.44,3.54-1.44,1.47,0,2.67.4,3.59,1.2s1.38,1.84,1.38,3.14c0,.94-.18,1.65-.53,2.15-.36.49-.82,1-1.4,1.52-.58.52-.93.85-1.05,1.01s-.18.39-.18.72c0,.46.34.82,1.03,1.08.69.27,1.51.4,2.47.4,1.77,0,3.1-.67,4-2.01.9-1.34,1.35-3.13,1.35-5.36,0-1.98-.49-3.73-1.46-5.26-.97-1.53-2.29-2.3-3.96-2.3-.59,0-1.14.08-1.66.23-.47.18-.92.35-1.36.53-.12,0-.25-.06-.39-.17-.13-.11-.2-.25-.2-.4,0-.3.26-.51.79-.61.53-.1,1.14-.15,1.83-.15,1.7,0,3.01-.51,3.94-1.52s1.4-2.44,1.4-4.29c0-1.62-.33-3-.98-4.12-.65-1.13-1.71-1.69-3.19-1.69-.86,0-1.68.17-2.45.51-.77.34-1.16.81-1.16,1.42,0,.33.1.61.29.83.2.23.58.39,1.16.49.58.1,1.08.4,1.49.89s.63,1.12.63,1.87c0,1.09-.4,1.92-1.2,2.5-.8.58-1.84.87-3.11.87-1.21,0-2.19-.37-2.95-1.1-.76-.73-1.14-1.68-1.14-2.84s.6-2.24,1.81-3.31c1.2-1.07,2.59-1.84,4.17-2.29,1.57-.45,3.16-.68,4.76-.68,3.14,0,5.67.52,7.57,1.55,1.9,1.04,2.86,2.68,2.86,4.92,0,1.69-.66,3.01-1.97,3.96-1.31.95-2.92,1.51-4.81,1.69v.3Z"/>
      <path class="cls-1" d="m108.56,482.91c0-1.01.36-1.87,1.07-2.58.71-.71,1.57-1.06,2.58-1.06s1.87.35,2.6,1.05c.72.7,1.09,1.56,1.09,2.6s-.36,1.91-1.07,2.62c-.71.71-1.58,1.06-2.62,1.06s-1.87-.35-2.58-1.06c-.71-.71-1.07-1.58-1.07-2.62Zm0,10.98c0-1.01.36-1.87,1.07-2.58.71-.71,1.57-1.06,2.58-1.06s1.87.35,2.6,1.04c.72.7,1.09,1.56,1.09,2.6s-.36,1.91-1.07,2.62c-.71.71-1.58,1.06-2.62,1.06s-1.87-.35-2.58-1.06c-.71-.71-1.07-1.58-1.07-2.62Z"/>
      <path class="cls-1" d="m132.41,492.52l.07,1.75c.07.84.25,1.4.53,1.69.28.29.66.47,1.12.53.47.06.87.1,1.2.11.33.01.69.03,1.09.06v.61h-17.4v-.61c.27,0,.55,0,.83-.02.28-.01.76-.06,1.44-.15s1.16-.29,1.44-.61c.28-.32.46-.88.54-1.69l.07-1.75v-17.86l-.07-1.75c-.07-.78-.25-1.36-.54-1.73-.28-.37-.7-.59-1.25-.67-.55-.08-1.11-.13-1.68-.17-.57-.04-.97-.07-1.22-.1v-.61h13.82v22.95Z"/>
      <path class="cls-1" d="m164.04,483.44c0,3.67-1.18,6.97-3.54,9.9-2.36,2.93-5.39,4.39-9.1,4.39-3.91,0-6.99-1.52-9.25-4.56-2.26-3.04-3.39-6.28-3.39-9.73,0-3.67,1.22-6.97,3.65-9.9,2.43-2.93,5.43-4.39,8.99-4.39s6.71,1.49,9.09,4.47c2.37,2.98,3.56,6.25,3.56,9.82Zm-9.18,0c0-2.1-.04-3.9-.11-5.4-.07-1.49-.21-2.94-.42-4.35-.21-1.41-.53-2.39-.96-2.96-.43-.57-1.09-.85-1.97-.85-.81,0-1.46.3-1.93.89s-.81,1.5-.98,2.72c-.17,1.22-.31,2.74-.41,4.56-.1,1.82-.15,3.62-.15,5.4,0,1.95.04,3.72.13,5.3.08,1.58.23,3.07.42,4.46.2,1.39.51,2.38.94,2.94.43.57,1.09.85,1.97.85.81,0,1.46-.3,1.94-.89.48-.59.8-1.49.96-2.7.16-1.2.29-2.76.41-4.67.11-1.91.17-3.68.17-5.3Z"/>
      <path class="cls-1" d="m196.07,476.71l-1.51-4.03c-.34-.73-.63-1.28-.87-1.63-.23-.35-.73-.59-1.49-.72l-1.14-.15v-.61h16.22v.61h-.52c-.17,0-.49.04-.96.13-.47.09-.86.2-1.18.32-.32.13-.48.51-.48,1.14,0,.58.17,1.39.5,2.43.33,1.04.72,2.2,1.16,3.48.44,1.28,1.02,2.93,1.73,4.96.71,2.03,1.23,3.5,1.55,4.41.32-.86.71-1.9,1.16-3.12.45-1.22,1.08-2.93,1.88-5.15.8-2.22,1.32-3.74,1.57-4.56.25-.82.37-1.54.37-2.15s-.15-1-.44-1.25c-.29-.25-.65-.41-1.07-.47-.42-.06-.81-.1-1.18-.11-.37-.01-.71-.03-1.03-.06v-.61h9.51v.61l-1.62.19c-.79.13-1.4.35-1.84.68-.44.33-.84.91-1.18,1.75l-1.11,2.93-7.89,21.7h-2.95l-6.71-19.61-7.05,19.61h-2.95l-7.53-21.77-1.14-2.96c-.37-.81-.71-1.39-1.01-1.73-.31-.34-.77-.55-1.38-.63l-1.29-.15v-.61h15.92v.61l-1.18.11c-.57.08-.96.2-1.2.36-.23.17-.35.48-.35.93,0,.56.2,1.45.61,2.68.41,1.23.92,2.72,1.53,4.46s1.17,3.29,1.66,4.64c.49,1.34.9,2.46,1.22,3.34l3.69-9.99Z"/>
      <path class="cls-1" d="m233.04,496.51c1.03-.03,2.09-.04,3.17-.06,1.08-.01,2.22-.1,3.43-.27,1.2-.16,2.69-1.42,4.46-3.76,1.77-2.34,3.07-4.76,3.91-7.24h.59v12.08h-28.97v-.61c.32,0,.69-.02,1.11-.06.42-.04.89-.09,1.42-.15.53-.06.93-.25,1.22-.57.28-.32.46-.88.54-1.69l.07-1.75v-18.01l-.07-1.75c-.07-.81-.26-1.38-.55-1.71-.29-.33-.71-.53-1.24-.61-.53-.08-1.01-.12-1.44-.13-.43-.01-.82-.03-1.16-.06v-.61h28.35v11.25h-.59c-1.25-2.84-2.78-5.23-4.57-7.16s-3.3-2.97-4.51-3.1c-1.22-.13-2.24-.2-3.08-.23-.84-.02-1.39-.04-1.66-.04h-.33l-.07,12.46,1.55-.08c1.42-.15,2.5-.84,3.22-2.07.72-1.23,1.09-2.68,1.09-4.35h.7v13.83h-.7c0-1.7-.36-3.18-1.09-4.45-.72-1.27-1.8-1.98-3.22-2.13l-1.55-.08v13.07Z"/>
      <path class="cls-1" d="m251.56,497.27v-.61c.32,0,.69-.02,1.11-.06s.89-.09,1.42-.15c.53-.06.93-.25,1.22-.57.28-.32.46-.88.53-1.69l.07-1.75v-18.01l-.07-1.75c-.07-.81-.26-1.38-.55-1.71-.29-.33-.71-.53-1.23-.61-.53-.08-1.01-.12-1.44-.13-.43-.01-.82-.03-1.16-.06v-.61l13.75-.08c2.88,0,5.58.28,8.13.84,2.54.56,4.89,1.98,7.04,4.26,2.15,2.28,3.23,5.5,3.23,9.65s-.96,6.91-2.89,8.8c-1.93,1.89-3.97,3.07-6.12,3.53-2.15.47-4.65.7-7.5.7h-15.52Zm17.32-26.6c-.34-.15-.88-.25-1.6-.3-.73-.05-1.35-.08-1.86-.08h-.44v26.26c.17,0,.33,0,.48.02.15.01.33.02.55.02.93,0,1.79-.06,2.56-.19.77-.13,1.5-.45,2.17-.97.68-.52,1.33-1.9,1.95-4.14.63-2.24.94-4.54.94-6.9,0-3.29-.39-6.24-1.16-8.83s-1.97-4.22-3.59-4.88Z"/>
      <path class="cls-1" d="m285.08,497.27v-.61c.32,0,.69-.02,1.11-.06.42-.04.89-.09,1.42-.15.53-.06.93-.25,1.22-.57.28-.32.46-.88.54-1.69l.07-1.75v-18.01l-.07-1.75c-.07-.81-.26-1.38-.55-1.71-.29-.33-.71-.53-1.24-.61-.53-.08-1.01-.12-1.44-.13-.43-.01-.82-.03-1.16-.06v-.61l13.75-.08c2.88,0,5.58.28,8.13.84,2.54.56,4.89,1.98,7.04,4.26,2.15,2.28,3.22,5.5,3.22,9.65s-.96,6.91-2.89,8.8c-1.93,1.89-3.97,3.07-6.12,3.53-2.15.47-4.65.7-7.5.7h-15.52Zm17.32-26.6c-.34-.15-.88-.25-1.6-.3s-1.34-.08-1.86-.08h-.44v26.26c.17,0,.33,0,.48.02.15.01.33.02.55.02.93,0,1.79-.06,2.56-.19.77-.13,1.5-.45,2.17-.97.68-.52,1.33-1.9,1.95-4.14.63-2.24.94-4.54.94-6.9,0-3.29-.39-6.24-1.16-8.83-.77-2.6-1.97-4.22-3.59-4.88Z"/>
      <path class="cls-1" d="m336.13,497.27h-17.36v-.61c.17,0,.41,0,.7-.02.29-.01.78-.06,1.46-.15s1.15-.3,1.44-.63c.28-.33.46-.89.53-1.67l.07-1.75v-18.05l-.07-1.75c-.07-.81-.24-1.37-.5-1.69-.26-.32-.77-.53-1.53-.63l-1.99-.15v-.61h17.25v.61l-1.99.11c-.76.08-1.27.26-1.53.55-.26.29-.42.87-.5,1.73l-.07,1.75v18.2l.07,1.75c.07.84.25,1.4.54,1.69.28.29.8.49,1.57.59l1.92.11v.61Z"/>
      <path class="cls-1" d="m371.19,470.18c-.32.03-.67.05-1.05.08-.38.03-.92.1-1.6.21-.69.11-1.21.41-1.57.87-.36.47-.57,1.11-.64,1.92l-.07,1.82v22.19h-4.5l-17.51-23.1h-.15v17.75l.07,1.82c.07.84.28,1.46.61,1.86s.83.67,1.51.78c.68.11,1.25.18,1.73.21.48.03.8.05.98.08v.61h-10.65v-.61c.32-.02.68-.05,1.08-.08.4-.02,1.09-.12,2.1-.29,1-.16,1.58-1.02,1.73-2.56l.07-1.82v-17.29l-.07-1.75c-.32-.53-.71-1.03-1.15-1.48-.45-.46-.93-.77-1.47-.95-.53-.18-1.04-.27-1.54-.27h-1.11v-.61h14.1l13.25,17.48h.15v-12.12l-.07-1.82c-.07-.81-.28-1.42-.61-1.84-.33-.42-.83-.68-1.49-.8-.66-.11-1.2-.18-1.6-.21-.41-.02-.78-.05-1.12-.08v-.61h10.62v.61Z"/>
      <path class="cls-1" d="m382.26,482.87c0,4,.38,7.33,1.14,9.98.76,2.65,2.09,3.97,3.98,3.97.93,0,1.65-.19,2.14-.57.49-.38.8-.8.92-1.27.12-.47.2-1.02.22-1.65.02-.63.04-1.42.04-2.36v-1.48c0-1.09-.04-1.82-.11-2.2-.07-.84-.24-1.41-.5-1.71-.26-.3-.66-.49-1.2-.57-.54-.08-1.03-.12-1.47-.13-.44-.01-.85-.03-1.22-.06v-.61h17.25v.61l-1.7.11c-.76.08-1.27.26-1.53.55-.26.29-.42.87-.5,1.73l-.07,1.79v4.98l.07,3.42h-.55c-.32-.73-.88-1.41-1.68-2.01-.8-.61-1.68-.91-2.64-.91-.86,0-2.09.54-3.69,1.63-1.6,1.09-3.71,1.63-6.34,1.63-3.64,0-6.7-1.35-9.18-4.07-2.48-2.71-3.72-6.12-3.72-10.22,0-4.31,1.36-7.76,4.09-10.37,2.73-2.61,6.21-3.91,10.43-3.91,2.31,0,4.5.53,6.56,1.6,2.06,1.06,3.22,1.62,3.46,1.67.71,0,1.19-.27,1.44-.82.25-.54.48-1.32.7-2.34h.74v12.27h-.63c-.74-3.14-1.96-5.8-3.67-7.98-1.71-2.18-3.89-3.27-6.54-3.27-2.11,0-3.69,1.26-4.72,3.78-1.03,2.52-1.55,5.45-1.55,8.8Z"/>
      <path class="cls-1" d="m427.34,483.44v8.89l.07,1.75c.07.81.27,1.39.59,1.75.32.35.86.58,1.62.68l1.88.15v.61h-17.69v-.61h1.14c.54-.08,1.06-.15,1.55-.21.49-.06.88-.25,1.16-.57.28-.32.46-.88.53-1.69l.07-1.75v-18.01l-.07-1.75c-.07-.81-.26-1.38-.55-1.71-.29-.33-.71-.53-1.25-.61-.54-.08-1.01-.12-1.4-.13-.39-.01-.76-.03-1.11-.06v-.61l16.48-.04c2.29,0,4.14.1,5.57.3,1.42.2,2.59.61,3.48,1.22.9.61,1.61,1.36,2.14,2.26.53.9.79,1.94.79,3.13,0,.89-.15,1.77-.46,2.66-.31.89-.78,1.65-1.42,2.28-.64.63-1.43,1.13-2.38,1.48-.95.35-2.45.53-4.51.53v.27c1.25.28,2.3.55,3.15.8.85.25,1.62.62,2.3,1.11.69.48,1.31,1.2,1.86,2.15s1,2,1.35,3.13c.34,1.13.65,1.93.92,2.4s.65.71,1.14.71c.64,0,1.06-.42,1.27-1.27.21-.85.31-1.82.31-2.91h.59c0,1.24-.07,2.23-.22,2.96-.15.73-.52,1.5-1.11,2.3-.59.8-1.43,1.44-2.53,1.94-1.09.49-2.28.74-3.56.74-1.99,0-3.58-.59-4.77-1.77-1.19-1.18-1.93-2.73-2.21-4.65-.28-1.92-.51-3.54-.68-4.86-.27-1.47-.63-2.33-1.07-2.57-.44-.24-.92-.37-1.44-.4-.52-.02-1.03-.04-1.55-.04Zm2.95-.8c.93-.15,1.64-.85,2.12-2.09.48-1.24.72-2.62.72-4.14,0-1.24-.25-2.46-.74-3.67-.49-1.2-1.08-1.91-1.77-2.11-.69-.2-1.3-.32-1.84-.34-.54-.02-1.02-.05-1.44-.08v12.54h1.25c.69,0,1.25-.04,1.7-.11Z"/>
      <path class="cls-1" d="m461.48,496.51c1.03-.03,2.09-.04,3.17-.06,1.08-.01,2.22-.1,3.43-.27,1.2-.16,2.69-1.42,4.46-3.76,1.77-2.34,3.07-4.76,3.91-7.24h.59v12.08h-28.97v-.61c.32,0,.69-.02,1.11-.06.42-.04.89-.09,1.42-.15.53-.06.93-.25,1.22-.57.28-.32.46-.88.54-1.69l.07-1.75v-18.01l-.07-1.75c-.07-.81-.26-1.38-.55-1.71-.29-.33-.71-.53-1.24-.61-.53-.08-1.01-.12-1.44-.13-.43-.01-.82-.03-1.16-.06v-.61h28.35v11.25h-.59c-1.25-2.84-2.78-5.23-4.57-7.16s-3.3-2.97-4.51-3.1c-1.22-.13-2.24-.2-3.08-.23-.84-.02-1.39-.04-1.66-.04h-.33l-.07,12.46,1.55-.08c1.42-.15,2.5-.84,3.22-2.07.72-1.23,1.09-2.68,1.09-4.35h.7v13.83h-.7c0-1.7-.36-3.18-1.09-4.45-.72-1.27-1.8-1.98-3.22-2.13l-1.55-.08v13.07Z"/>
      <path class="cls-1" d="m496.24,497.73c-4.23,0-7.7-1.35-10.41-4.05-2.71-2.7-4.07-6.11-4.07-10.24s1.35-7.67,4.04-10.32c2.69-2.65,6.16-3.97,10.41-3.97,1.82,0,3.39.32,4.72.95l3.91,2.28c.74,0,1.23-.26,1.47-.78.25-.52.42-1.26.52-2.22h.74v12.01h-.63c-1.08-3.09-1.85-5.18-2.3-6.27-.46-1.09-1.21-2.14-2.27-3.15-1.06-1.01-2.41-1.52-4.05-1.52-2.14,0-3.72,1.24-4.75,3.72-1.03,2.48-1.55,5.38-1.55,8.7,0,3.57.62,6.67,1.86,9.29,1.24,2.62,3.06,3.93,5.47,3.93,2.24,0,4.03-.84,5.38-2.51s2.25-3.85,2.69-6.54l.63.11c-.34,3.04-1.46,5.56-3.35,7.56-1.89,2-4.71,3-8.44,3Z"/>
      <path class="cls-1" d="m523.72,496.51c1.03-.03,2.09-.04,3.17-.06,1.08-.01,2.22-.1,3.43-.27,1.2-.16,2.69-1.42,4.46-3.76,1.77-2.34,3.07-4.76,3.91-7.24h.59v12.08h-28.97v-.61c.32,0,.69-.02,1.11-.06.42-.04.89-.09,1.42-.15.53-.06.93-.25,1.22-.57.28-.32.46-.88.54-1.69l.07-1.75v-18.01l-.07-1.75c-.07-.81-.26-1.38-.55-1.71-.29-.33-.71-.53-1.24-.61-.53-.08-1.01-.12-1.44-.13-.43-.01-.82-.03-1.16-.06v-.61h28.35v11.25h-.59c-1.25-2.84-2.78-5.23-4.57-7.16s-3.3-2.97-4.51-3.1c-1.22-.13-2.24-.2-3.08-.23-.84-.02-1.39-.04-1.66-.04h-.33l-.07,12.46,1.55-.08c1.42-.15,2.5-.84,3.22-2.07.72-1.23,1.09-2.68,1.09-4.35h.7v13.83h-.7c0-1.7-.36-3.18-1.09-4.45-.72-1.27-1.8-1.98-3.22-2.13l-1.55-.08v13.07Z"/>
      <path class="cls-1" d="m560.93,497.27h-17.99v-.61h1.14c.52-.08,1.02-.15,1.51-.21.49-.06.88-.25,1.16-.57.28-.32.46-.88.53-1.69l.07-1.75v-18.01l-.07-1.75c-.07-.81-.26-1.38-.55-1.71-.29-.33-.71-.53-1.23-.61-.53-.08-1.01-.12-1.44-.13-.43-.01-.82-.03-1.16-.06v-.61l17.21-.04c4.01,0,6.67.46,7.98,1.37s2.23,1.89,2.75,2.95.77,2.18.77,3.4c0,1.14-.17,2.23-.52,3.27-.34,1.04-.87,1.89-1.58,2.56-.71.67-1.6,1.17-2.65,1.5-1.06.33-2.42.49-4.09.49s-2.89,0-3.87.02c-.98.01-1.81.03-2.47.06v7.3l.07,1.75c.07.81.25,1.37.54,1.69.28.32.69.51,1.23.59.54.08,1.07.12,1.58.13.52.01.87.03,1.07.06v.61Zm1.47-20.1c0-1.44-.18-2.85-.55-4.22-.37-1.37-.93-2.16-1.68-2.38-.75-.22-1.47-.33-2.17-.34-.7-.01-1.22-.02-1.57-.02v14.21c.49-.02,1-.05,1.51-.08.52-.02,1.2-.12,2.05-.29.85-.16,1.46-.92,1.84-2.28.38-1.35.57-2.89.57-4.62Z"/>
      <path class="cls-1" d="m574.17,469.57h29.12v12.2h-.63c-.66-1.54-1.46-3.19-2.38-4.92-.92-1.74-1.89-3.25-2.89-4.54s-1.89-1.94-2.65-1.94l-1.47-.08v22.15l.07,1.75c.07.81.24,1.37.5,1.69.26.32.66.51,1.2.57.54.06,1.03.11,1.47.13.44.03.84.05,1.18.08v.61h-18.02v-.61l2.43-.11c.74-.08,1.24-.27,1.51-.57.27-.3.44-.87.52-1.71l.07-1.75v-22.23l-1.44.08c-.79,0-1.66.6-2.62,1.8-.96,1.2-1.92,2.72-2.89,4.56-.97,1.84-1.79,3.52-2.45,5.04h-.63v-12.2Z"/>
      <path class="cls-1" d="m622.74,497.27h-17.36v-.61c.17,0,.41,0,.7-.02.29-.01.78-.06,1.46-.15s1.15-.3,1.44-.63c.28-.33.46-.89.53-1.67l.07-1.75v-18.05l-.07-1.75c-.07-.81-.24-1.37-.5-1.69-.26-.32-.77-.53-1.53-.63l-1.99-.15v-.61h17.25v.61l-1.99.11c-.76.08-1.27.26-1.53.55-.26.29-.42.87-.5,1.73l-.07,1.75v18.2l.07,1.75c.07.84.25,1.4.54,1.69.28.29.8.49,1.57.59l1.92.11v.61Z"/>
      <path class="cls-1" d="m654.97,483.44c0,4.05-1.49,7.45-4.46,10.18-2.97,2.74-6.49,4.1-10.54,4.1s-7.76-1.35-10.6-4.05c-2.84-2.7-4.26-6.11-4.26-10.24s1.45-7.7,4.35-10.34c2.9-2.63,6.4-3.95,10.51-3.95s7.63,1.34,10.58,4.01c2.95,2.67,4.42,6.1,4.42,10.28Zm-11.21-10.37c-.74-2.13-2-3.19-3.8-3.19-.91,0-1.7.3-2.36.91-.66.61-1.17,1.49-1.53,2.64-.36,1.15-.62,2.64-.77,4.45-.16,1.81-.24,3.67-.24,5.57,0,2.61.1,4.74.29,6.38.2,1.65.56,3.26,1.11,4.83.54,1.57,1.71,2.36,3.5,2.36.91,0,1.7-.3,2.36-.91.66-.61,1.17-1.49,1.53-2.64.36-1.15.61-2.63.77-4.45.16-1.81.24-3.67.24-5.57,0-2.25-.07-4.21-.22-5.87-.15-1.66-.44-3.16-.88-4.5Z"/>
      <path class="cls-1" d="m689.23,470.18c-.32.03-.67.05-1.05.08-.38.03-.92.1-1.6.21-.69.11-1.21.41-1.57.87-.36.47-.57,1.11-.64,1.92l-.07,1.82v22.19h-4.5l-17.51-23.1h-.15v17.75l.07,1.82c.07.84.28,1.46.61,1.86s.83.67,1.51.78c.68.11,1.25.18,1.73.21.48.03.8.05.98.08v.61h-10.65v-.61c.32-.02.68-.05,1.08-.08.4-.02,1.09-.12,2.1-.29,1-.16,1.58-1.02,1.73-2.56l.07-1.82v-17.29l-.07-1.75c-.32-.53-.71-1.03-1.15-1.48-.45-.46-.93-.77-1.47-.95-.53-.18-1.04-.27-1.54-.27h-1.11v-.61h14.1l13.25,17.48h.15v-12.12l-.07-1.82c-.07-.81-.28-1.42-.61-1.84-.33-.42-.83-.68-1.49-.8-.66-.11-1.2-.18-1.6-.21-.41-.02-.78-.05-1.12-.08v-.61h10.62v.61Z"/>
      <path class="cls-1" d="m731.69,483.44c0,4.05-1.49,7.45-4.46,10.18-2.97,2.74-6.49,4.1-10.54,4.1s-7.76-1.35-10.6-4.05c-2.84-2.7-4.26-6.11-4.26-10.24s1.45-7.7,4.35-10.34c2.9-2.63,6.4-3.95,10.5-3.95s7.63,1.34,10.58,4.01c2.95,2.67,4.42,6.1,4.42,10.28Zm-11.21-10.37c-.74-2.13-2-3.19-3.8-3.19-.91,0-1.7.3-2.36.91-.66.61-1.17,1.49-1.53,2.64-.36,1.15-.61,2.64-.77,4.45-.16,1.81-.24,3.67-.24,5.57,0,2.61.1,4.74.29,6.38.2,1.65.57,3.26,1.11,4.83.54,1.57,1.71,2.36,3.5,2.36.91,0,1.7-.3,2.36-.91.66-.61,1.17-1.49,1.53-2.64s.61-2.63.77-4.45c.16-1.81.24-3.67.24-5.57,0-2.25-.07-4.21-.22-5.87-.15-1.66-.44-3.16-.88-4.5Z"/>
      <path class="cls-1" d="m751.76,497.27h-17.99v-.61h1.14c.52-.08,1.02-.15,1.51-.21.49-.06.88-.25,1.16-.57.28-.32.46-.88.53-1.69l.07-1.75v-18.01l-.07-1.75c-.07-.81-.26-1.38-.55-1.71-.29-.33-.71-.53-1.23-.61-.53-.08-1.01-.12-1.44-.13-.43-.01-.82-.03-1.16-.06v-.61l17.21-.04c4.01,0,6.67.46,7.98,1.37s2.23,1.89,2.75,2.95.77,2.18.77,3.4c0,1.14-.17,2.23-.52,3.27-.34,1.04-.87,1.89-1.58,2.56-.71.67-1.6,1.17-2.65,1.5-1.06.33-2.42.49-4.09.49s-2.89,0-3.87.02c-.98.01-1.81.03-2.47.06v7.3l.07,1.75c.07.81.25,1.37.54,1.69.28.32.69.51,1.23.59.54.08,1.07.12,1.58.13.52.01.87.03,1.07.06v.61Zm1.47-20.1c0-1.44-.18-2.85-.55-4.22-.37-1.37-.93-2.16-1.68-2.38-.75-.22-1.47-.33-2.17-.34-.7-.01-1.22-.02-1.57-.02v14.21c.49-.02,1-.05,1.51-.08.52-.02,1.2-.12,2.05-.29.85-.16,1.46-.92,1.84-2.28.38-1.35.57-2.89.57-4.62Z"/>
      <path class="cls-1" d="m776.52,496.51c1.03-.03,2.09-.04,3.17-.06,1.08-.01,2.22-.1,3.43-.27,1.2-.16,2.69-1.42,4.46-3.76,1.77-2.34,3.07-4.76,3.91-7.24h.59v12.08h-28.97v-.61c.32,0,.69-.02,1.11-.06s.89-.09,1.42-.15c.53-.06.93-.25,1.22-.57.28-.32.46-.88.53-1.69l.07-1.75v-18.01l-.07-1.75c-.07-.81-.26-1.38-.55-1.71-.29-.33-.71-.53-1.23-.61-.53-.08-1.01-.12-1.44-.13-.43-.01-.82-.03-1.16-.06v-.61h28.34v11.25h-.59c-1.25-2.84-2.78-5.23-4.57-7.16s-3.3-2.97-4.52-3.1c-1.22-.13-2.24-.2-3.08-.23-.84-.02-1.39-.04-1.66-.04h-.33l-.07,12.46,1.55-.08c1.42-.15,2.5-.84,3.23-2.07.72-1.23,1.09-2.68,1.09-4.35h.7v13.83h-.7c0-1.7-.36-3.18-1.09-4.45-.73-1.27-1.8-1.98-3.23-2.13l-1.55-.08v13.07Z"/>
      <path class="cls-1" d="m828.23,470.18c-.32.03-.67.05-1.05.08-.38.03-.92.1-1.6.21-.69.11-1.21.41-1.57.87-.36.47-.57,1.11-.64,1.92l-.07,1.82v22.19h-4.5l-17.51-23.1h-.15v17.75l.07,1.82c.07.84.28,1.46.61,1.86s.83.67,1.51.78c.68.11,1.25.18,1.73.21.48.03.8.05.98.08v.61h-10.65v-.61c.32-.02.68-.05,1.08-.08.4-.02,1.09-.12,2.1-.29,1-.16,1.58-1.02,1.73-2.56l.07-1.82v-17.29l-.07-1.75c-.32-.53-.71-1.03-1.15-1.48-.45-.46-.93-.77-1.47-.95-.53-.18-1.04-.27-1.54-.27h-1.11v-.61h14.1l13.25,17.48h.15v-12.12l-.07-1.82c-.07-.81-.28-1.42-.61-1.84-.33-.42-.83-.68-1.49-.8-.66-.11-1.2-.18-1.6-.21-.41-.02-.78-.05-1.12-.08v-.61h10.62v.61Z"/>
    </g>
  </g>
</svg>