<?xml version="1.0" encoding="UTF-8"?>
<svg id="_レイヤー_2" data-name="レイヤー 2" xmlns="http://www.w3.org/2000/svg" viewBox="0 0 889 465.66">
  <defs>
    <style>
      .cls-1 {
        fill: #292a2e;
        stroke-width: 0px;
      }
    </style>
  </defs>
  <g id="_レイヤー_1-2" data-name="レイヤー 1">
    <g>
      <path class="cls-1" d="m207.74,11.33c0,2.81-2.81,5.2-8.44,7.15s-12.5,2.93-20.62,2.93-18.33-1.12-30.47-3.36c-6.41,3.33-12.27,8.27-17.58,14.8-5.31,6.54-11.02,15.79-17.11,27.77-6.09,11.98-10.56,19.96-13.4,23.95-2.84,3.98-6.73,7.85-11.68,11.6-13.07,9.69-26.64,14.53-40.7,14.53-7.5,0-13.63-1.59-18.4-4.77s-7.15-7.29-7.15-12.34c0-2.55.75-4.74,2.27-6.56,1.51-1.82,3.31-2.73,5.39-2.73,3.38,0,5.08,1.77,5.08,5.31,0,1.67-.52,3.1-1.56,4.3-1.04,1.2-2.32,1.8-3.83,1.8-2.45,0-3.67-1.2-3.67-3.59,0-1.25-.21-1.88-.62-1.88-.89,0-1.33,1.28-1.33,3.83,0,4.22,2.17,7.79,6.52,10.7,4.35,2.92,9.7,4.38,16.05,4.38,13.96,0,26.48-6.3,37.58-18.91,5.21-5.88,11.93-15.6,20.16-29.14,13.44-21.98,27.47-36.43,42.11-43.36-2.81-.47-7.03-1.33-12.66-2.58-13.23-2.86-23.36-4.3-30.39-4.3-.73,0-2.92.1-6.56.31,2.45,4.58,3.67,9.82,3.67,15.7,0,11.46-4.35,22.21-13.05,32.27-8.7,10.05-18,15.08-27.89,15.08-4.12,0-7.46-1.37-10.04-4.1s-3.87-6.26-3.87-10.59c0-5.94,2.25-12.51,6.76-19.73,4.5-7.21,10.34-13.52,17.5-18.91,7.16-5.39,15.01-9.15,23.55-11.29-4.11-5.57-9.97-8.36-17.57-8.36-6.4,0-12.87,1.87-19.4,5.6-6.53,3.73-12.27,8.8-17.21,15.22-.73.99-1.22,1.49-1.48,1.49-.31,0-.52-.16-.62-.47,0-.89,2.13-3.47,6.4-7.75C53.73,5.11,64.45,0,75.65,0c8.69,0,15.3,3.05,19.83,9.14,6.3-1.82,13.54-2.73,21.72-2.73,4.22,0,8.07.26,11.56.78,3.7.57,12.76,2.34,27.19,5.31,12.03-5.26,23.59-7.89,34.69-7.89s17.11,2.24,17.11,6.72Zm-110.39,11.72c0-4.17-.96-8.02-2.89-11.56-11.67,1.93-22.53,7.94-32.58,18.05-10.05,10.1-15.08,20.05-15.08,29.84,0,3.75,1.16,6.9,3.48,9.45,2.32,2.55,5.17,3.83,8.55,3.83,8.8,0,17.42-5.43,25.86-16.29s12.66-21.97,12.66-33.32Zm109.14-11.56c0-1.51-1.47-2.79-4.41-3.83-2.94-1.04-6.65-1.56-11.13-1.56-11.15,0-21.95,2.34-32.42,7.03,1.3.21,4.77.83,10.39,1.88,8.33,1.62,15.73,2.42,22.19,2.42,4.22,0,7.84-.59,10.86-1.76,3.02-1.17,4.53-2.56,4.53-4.18Z"/>
      <path class="cls-1" d="m165.04,82.62c0,.83-1.54,2.78-4.61,5.84-4.59,4.57-8.81,6.85-12.66,6.85-1.62,0-3.05-.31-4.3-.94-6.88,9.74-13.34,14.61-19.39,14.61-3.13,0-5.8-1.29-8.01-3.87-2.22-2.58-3.32-5.66-3.32-9.26,0-8.02,5.26-15.75,15.78-23.2,7.4-5.26,13.49-7.89,18.28-7.89,4.48,0,6.72,2.4,6.72,7.19,0,5.99-3.15,13.2-9.45,21.64,1.04.62,2.21.94,3.52.94,2.34,0,5.08-1.09,8.22-3.27,3.13-2.18,5.69-4.8,7.68-7.86.58-.73.99-1.09,1.25-1.09.21,0,.31.1.31.31Zm-12.7-10.51c0-4.22-1.9-6.33-5.7-6.33-4.74,0-10.52,4.53-17.34,13.59-6.82,9.06-10.23,16.69-10.23,22.89,0,3.59,1.72,5.39,5.16,5.39,5.62,0,11.77-4.63,18.44-13.91-1.51-1.67-2.27-3.38-2.27-5.16,0-2.55,1.02-5.18,3.05-7.89,2.03-2.71,4.01-4.06,5.94-4.06.83,0,1.41.52,1.72,1.56.83-1.82,1.25-3.85,1.25-6.09Z"/>
      <path class="cls-1" d="m249.33,82.7c-.05.16-.31.57-.78,1.25l-3.36,4.62c-9.8,13.61-17.05,20.42-21.74,20.42-2.45,0-4.46-.91-6.02-2.73-1.56-1.82-2.35-4.17-2.35-7.03s.99-6.07,2.97-9.45c.36-.62,2.27-3.41,5.7-8.36,4.38-6.25,6.56-10.34,6.56-12.27,0-2.13-1.07-3.2-3.2-3.2-6.88,0-18.67,14.12-35.39,42.34-1.04-.21-2.47-.31-4.3-.31-2.14,0-3.96.1-5.47.31l11.09-17.58c7.24-11.56,10.86-18.65,10.86-21.25,0-2.34-.96-3.52-2.89-3.52-2.87,0-7.55,4.12-14.06,12.34-6.51,8.23-12.97,18.23-19.38,30-1.2-.21-2.73-.31-4.61-.31-2.03,0-3.8.1-5.31.31l11.17-17.58c7.71-12.08,11.56-19.56,11.56-22.42,0-1.56-.6-2.34-1.8-2.34-2.56,0-7.85,5.59-15.89,16.76-.52.73-.94,1.09-1.25,1.09-.21-.05-.31-.21-.31-.47,0-.47,2.4-3.72,7.2-9.75,4.7-5.87,8.32-8.81,10.88-8.81,1.67,0,3.1.79,4.3,2.38,1.2,1.59,1.8,3.48,1.8,5.66,0,3.02-1.54,7.21-4.61,12.58,9.38-13.75,16.35-20.62,20.94-20.62,2.19,0,3.98.89,5.39,2.66,1.41,1.77,2.11,3.98,2.11,6.64,0,2.97-1.38,6.75-4.14,11.33,9.9-13.75,17.32-20.62,22.27-20.62,2.24,0,4.13.96,5.66,2.89,1.54,1.93,2.3,4.27,2.3,7.03,0,3.23-1.28,7.01-3.83,11.33-.05.05-2.29,3.39-6.72,10-2.55,3.75-3.83,6.62-3.83,8.59,0,2.14,1.07,3.2,3.21,3.2,4.07,0,10.8-6.57,20.18-19.72l2.42-3.36,1.41-1.72c.26-.52.52-.78.78-.78.31,0,.47.16.47.47Z"/>
      <path class="cls-1" d="m294.8,82.62c0,.83-1.54,2.78-4.61,5.84-4.59,4.57-8.81,6.85-12.66,6.85-1.62,0-3.05-.31-4.3-.94-6.88,9.74-13.34,14.61-19.39,14.61-3.13,0-5.8-1.29-8.01-3.87-2.22-2.58-3.32-5.66-3.32-9.26,0-8.02,5.26-15.75,15.78-23.2,7.4-5.26,13.49-7.89,18.28-7.89,4.48,0,6.72,2.4,6.72,7.19,0,5.99-3.15,13.2-9.45,21.64,1.04.62,2.21.94,3.52.94,2.34,0,5.08-1.09,8.22-3.27,3.13-2.18,5.69-4.8,7.68-7.86.58-.73.99-1.09,1.25-1.09.21,0,.31.1.31.31Zm-12.7-10.51c0-4.22-1.9-6.33-5.7-6.33-4.74,0-10.52,4.53-17.34,13.59-6.82,9.06-10.23,16.69-10.23,22.89,0,3.59,1.72,5.39,5.16,5.39,5.62,0,11.77-4.63,18.44-13.91-1.51-1.67-2.27-3.38-2.27-5.16,0-2.55,1.02-5.18,3.05-7.89,2.03-2.71,4.01-4.06,5.94-4.06.83,0,1.41.52,1.72,1.56.83-1.82,1.25-3.85,1.25-6.09Z"/>
      <path class="cls-1" d="m344.32,82.77c0,.78-2.87,4.34-8.6,10.69-6.36,6.97-14.65,13.26-24.87,18.88l-3.83,6.88c-7.55,13.54-15.44,23.62-23.67,30.23-8.49,6.82-15.86,10.23-22.11,10.23-2.13,0-3.92-.68-5.35-2.03-1.43-1.35-2.15-3.02-2.15-5,0-10.47,12.06-21.3,36.17-32.5,1.98-.99,4.95-2.37,8.91-4.14l1.17-.7,13.75-24.45c-5.42,7.45-9.35,12.33-11.8,14.65-2.45,2.32-4.92,3.48-7.42,3.48-2.14,0-4-.91-5.59-2.73-1.59-1.82-2.38-3.96-2.38-6.41,0-2.97,1.85-7.6,5.55-13.91l12.03-20.31c1.2.21,2.58.31,4.14.31,1.35,0,3.23-.18,5.62-.55l-15.39,25c-4.38,7.08-6.56,11.72-6.56,13.91,0,2.34,1.07,3.52,3.2,3.52,5.62,0,14.27-9.97,25.94-29.92l7.19-12.27c1.2.21,2.66.31,4.38.31,1.41,0,3.15-.18,5.23-.55-6.46,10.26-15.21,25.31-26.25,45.16,6.36-3.28,11.73-6.83,16.11-10.65,4.38-3.82,9.28-9.22,14.71-16.19.73-.94,1.2-1.41,1.41-1.41.31,0,.47.16.47.47Zm-45.12,33.87c-.83.47-3.78,1.95-8.83,4.45-23.7,11.77-35.55,22.34-35.55,31.72,0,3.91,2.19,5.86,6.56,5.86,5.52,0,11.02-3,16.48-8.98,5.47-5.99,12.24-16.48,20.31-31.48l1.02-1.56Z"/>
      <path class="cls-1" d="m399.19,82.7c0,1.1-3.81,6.15-11.42,15.18-6.15,7.41-11,11.11-14.55,11.11-2.4,0-4.36-.9-5.87-2.7-1.51-1.8-2.27-4.05-2.27-6.76s.83-5.86,2.5-9.14c-5.21,7.29-9.19,12.21-11.95,14.77-2.76,2.55-5.44,3.83-8.05,3.83-2.76,0-5.08-1.19-6.95-3.55s-2.81-5.35-2.81-8.95c0-10,7.06-18.85,21.17-26.56,6.2-3.44,11.2-5.16,15-5.16,3.23,0,4.84,1.56,4.84,4.69,0,.89-.21,2.06-.62,3.52l3.98-7.58c1.56.37,2.94.55,4.14.55,1.41,0,3.23-.18,5.47-.55l-13.83,22.89c-4.79,8.02-7.19,13.31-7.19,15.86s1.02,3.67,3.05,3.67,5.42-2.39,10.01-7.16c4.59-4.77,9.26-10.65,14-17.65.31-.52.6-.78.86-.78.31,0,.47.16.47.47Zm-21.52-12.93c0-2.55-1.17-3.83-3.52-3.83-4.79,0-11.08,4.69-18.87,14.06-7.79,9.38-11.68,16.95-11.68,22.73,0,3.39,1.51,5.08,4.53,5.08,3.59,0,9.82-5.96,18.67-17.89,7.24-9.79,10.86-16.51,10.86-20.16Z"/>
      <path class="cls-1" d="m556.58,71.48c0,9.17-2.94,16.95-8.83,23.36-5.89,6.41-13.02,9.61-21.41,9.61-3.33,0-7.29-.86-11.88-2.58-8.18,5.36-17.19,8.05-27.03,8.05-8.18,0-15.53-1.86-22.07-5.59-6.54-3.72-11.29-8.74-14.26-15.04-6.98-2.34-12.45-6.12-16.41-11.33-3.96-5.21-5.94-11.25-5.94-18.12,0-12.19,5.45-22.46,16.34-30.82s24.26-12.54,40.11-12.54c8.84,0,17.73,1.38,26.68,4.14,3.96-4.58,7.99-8.42,12.11-11.52,4.11-3.1,7.24-4.65,9.38-4.65,1.82,0,2.73.86,2.73,2.58,0,3.07-5.23,8.67-15.7,16.8,11.04,4.95,19.83,11.73,26.37,20.35,6.54,8.62,9.8,17.72,9.8,27.3Zm-45.62-49.77c-7.4-2.34-14.74-3.52-22.03-3.52-14.64,0-27.55,4.56-38.75,13.67-11.2,9.12-16.8,19.61-16.8,31.48,0,11.25,5.6,19.19,16.8,23.83-1.2-3.23-1.8-6.43-1.8-9.61,0-12.5,7.92-23.23,23.75-32.19,4.17-2.34,14.82-6.77,31.95-13.28,1.72-2.92,4.01-6.38,6.88-10.39Zm-8.28,13.12c-1.88.94-4.66,2.34-8.36,4.22-25.89,13.07-38.83,27.94-38.83,44.61,0,1.51.21,3.28.62,5.31,3.18.31,5.31.47,6.41.47,3.44,0,7.21-.55,11.33-1.64-1.62-3.02-2.42-5.99-2.42-8.91,0-6.2,2.34-12,7.03-17.42,4.69-5.42,10.73-9.32,18.12-11.72,1.2-4.01,3.23-8.98,6.09-14.92Zm7.5,65c-2.71-1.67-4.64-3.18-5.78-4.53-4.06,1.82-7.94,2.73-11.64,2.73-7.45,0-13.44-2.97-17.97-8.91-4.48,1.25-8.52,1.88-12.11,1.88-1.62,0-3.65-.16-6.09-.47,2.08,5.26,5.82,9.51,11.21,12.73,5.39,3.23,11.42,4.84,18.09,4.84,7.97,0,16.07-2.76,24.3-8.28Zm-14.06-48.36c-6.2,2.76-11.22,6.72-15.08,11.88-3.85,5.16-5.78,10.55-5.78,16.17,0,2.34.49,4.79,1.48,7.34,6.41-2.09,12.21-5.25,17.42-9.47-.62-3.18-.94-6-.94-8.46,0-5.14.96-10.96,2.89-17.46Zm7.19,42.89c-4.43-4.91-7.37-10.07-8.83-15.5-5.37,4.08-11.02,7.22-16.95,9.41,3.07,5.57,8.52,8.36,16.33,8.36,3.02,0,6.17-.76,9.45-2.27Zm12.38-43.98c-2.87-.73-5.61-1.09-8.22-1.09s-5.17.36-7.99,1.09c-1.51,5.51-2.27,12.01-2.27,19.49,0,1.82.05,3.41.16,4.77,7.93-7.23,14.04-15.32,18.32-24.26Zm13.71,19.53c0-8.75-4-15.05-11.99-18.91-5.01,9.83-11.64,18.31-19.88,25.43.68,6.68,3.13,12.4,7.36,17.15,7.04-4.33,10.65-9.42,10.8-15.27,0-1.46.52-2.19,1.57-2.19,1.19,0,1.79.62,1.79,1.88,0,2.25-1.34,5.08-4.02,8.5-2.68,3.42-5.66,6.1-8.94,8.03.73.78,2.27,2.06,4.61,3.83l.78.55c5.46-4.11,9.82-8.78,13.06-13.98,3.25-5.21,4.87-10.21,4.87-15Zm23.36-1.64c0-9.17-2.92-17.53-8.75-25.08-5.83-7.55-14.12-13.7-24.84-18.44-3.65,2.66-8.18,5.5-13.59,8.52-2.34,4.58-4.27,9.74-5.78,15.47,2.92-.52,5.48-.78,7.67-.78,3.08,0,5.98.44,8.69,1.33,1.98-4.02,3.26-7.84,3.83-11.44.21-1.46.68-2.19,1.41-2.19.68,0,1.02.42,1.02,1.25,0,2.35-1.46,6.69-4.38,13.01,9.4,4.06,14.1,11.41,14.1,22.03,0,11.35-5.39,21.02-16.17,28.98,2.76,1.09,5.57,1.64,8.44,1.64,7.76,0,14.43-3.37,20-10.12,5.57-6.74,8.36-14.8,8.36-24.18Zm-35.23-44.14c-1.72-.62-3.36-1.2-4.92-1.72-2.08,2.5-4.06,5.31-5.94,8.44,2.76-1.35,6.38-3.59,10.86-6.72Zm17.11-17.11c0-.83-.42-1.25-1.25-1.25-1.67,0-4.49,1.54-8.48,4.61-3.98,3.07-7.77,6.64-11.37,10.7l.62.31,1.64.47,2.03,1.02,1.02.31c4.06-2.81,7.71-5.87,10.94-9.18,3.23-3.31,4.84-5.64,4.84-6.99Z"/>
      <path class="cls-1" d="m761.98,25.91c0,2.71-.36,5.67-1.08,8.9-.72,3.23-1.42,4.84-2.08,4.84-.52,0-.78-.26-.78-.78,0-.16.05-.39.16-.7,1.38-3.64,2.07-7.57,2.07-11.78,0-6.56-1.95-11.82-5.86-15.8s-9.06-5.97-15.47-5.97c-8.8,0-17.71,2.84-26.72,8.51,7.71,6.14,11.56,12.8,11.56,19.99,0,6.09-2.44,11.28-7.3,15.57-4.87,4.29-11.29,6.94-19.26,7.92,5.42,3.13,8.12,7.66,8.12,13.6,0,3.96-1.38,9.98-4.14,18.06-1.82,5.32-2.73,9.49-2.73,12.51s1.12,5.77,3.37,7.93c2.24,2.16,4.98,3.24,8.22,3.24s6.5-1.11,9.47-3.32c.68-.42,1.15-.62,1.41-.62.42,0,.62.21.62.62,0,.88-1.46,1.9-4.38,3.06-2.92,1.16-5.45,1.74-7.59,1.74-5.01,0-9.21-1.99-12.6-5.98-3.39-3.99-5.08-8.93-5.08-14.81,0-4.27,1.88-11.81,5.62-22.59.94-2.76,1.41-5.11,1.41-7.04,0-2.45-1.02-4.53-3.05-6.25-3.33.31-5.23.47-5.7.47-5.16,0-7.73-.65-7.73-1.95,0-.83,1.3-1.25,3.91-1.25,3.07,0,6.15.6,9.22,1.8,6.2-.99,11.28-3.86,15.23-8.63,3.96-4.76,5.94-10.37,5.94-16.82,0-5.1-1.98-9.99-5.94-14.68l-.78-1.01c-11.41,8.54-22.19,23.44-32.34,44.69-6.15,12.87-11.77,22.14-16.88,27.82-5.1,5.68-12.27,10.81-21.48,15.39-10.89,5.31-20.6,7.97-29.14,7.97-6.98,0-12.79-1.6-17.42-4.8-4.64-3.2-6.95-7.2-6.95-11.99,0-2.66.81-4.95,2.42-6.88,1.61-1.93,3.52-2.89,5.7-2.89,3.18,0,4.77,1.77,4.77,5.31,0,1.77-.53,3.28-1.6,4.53-1.07,1.25-2.38,1.88-3.95,1.88-2.71,0-4.01-1.41-3.91-4.22.05-1.15-.05-1.72-.31-1.72-.83,0-1.25,1.38-1.25,4.14,0,4.32,2.12,7.92,6.36,10.78s9.59,4.3,16.04,4.3c11.4,0,21.73-4.22,31-12.66,4.06-3.7,7.52-7.47,10.38-11.33,3.12-4.17,9.94-14.27,20.46-30.31,5.26-7.92,11.45-15.86,18.58-23.83,7.13-7.97,13.19-13.67,18.19-17.11-8.12-6.92-20.05-10.38-35.78-10.38-21.98,0-41.09,7.94-57.34,23.83-13.33,13.02-20,25.29-20,36.8,0,5.83,1.88,10.47,5.62,13.91s8.83,5.16,15.23,5.16c10.47,0,21.29-5.03,32.46-15.08,11.17-10.05,16.76-19.82,16.76-29.3,0-7.55-3.88-11.33-11.64-11.33s-16.08,4.33-24.96,13c-8.88,8.66-13.32,16.8-13.32,24.39,0,1.87.63,3.49,1.88,4.84,1.26,1.35,2.72,2.03,4.4,2.03.89,0,1.34.23,1.34.7,0,.42-.5.62-1.49.62-2.51,0-4.63-1.13-6.35-3.4-1.73-2.26-2.59-5.03-2.59-8.31,0-8.12,4.45-16.03,13.36-23.73,8.91-7.7,18.05-11.55,27.42-11.55s13.44,4.14,13.44,12.42c0,10.1-5.7,20.31-17.11,30.62s-22.66,15.47-33.75,15.47c-7.24,0-13.03-2.17-17.38-6.52-4.35-4.35-6.52-10.17-6.52-17.46,0-14.74,8.32-28.19,24.96-40.35,16.64-12.16,35.04-18.24,55.2-18.24,15.31,0,28.18,3.41,38.59,10.23,9.53-5.93,18.75-8.9,27.66-8.9,6.98,0,12.59,2.08,16.84,6.24,4.24,4.16,6.37,9.65,6.37,16.47Z"/>
      <path class="cls-1" d="m763.85,82.7c-.05.16-.31.57-.78,1.25l-3.36,4.62c-9.8,13.61-17.29,20.42-22.45,20.42-2.45,0-4.5-.87-6.14-2.62s-2.46-3.92-2.46-6.52c0-3.02,1.8-7.6,5.39-13.75l12.19-20.7c1.61.37,2.89.55,3.83.55,1.41,0,3.38-.18,5.94-.55l-17.73,29.14c-2.55,4.22-3.83,7.47-3.83,9.77s1.23,3.52,3.68,3.52c4.64,0,12.8-8.27,24.49-24.8.26-.52.52-.78.78-.78.31,0,.47.16.47.47Zm-1.13-32.3c0,1.82-.77,3.53-2.3,5.12-1.54,1.59-3.22,2.38-5.04,2.38-2.34,0-3.52-1.17-3.52-3.52,0-1.72.81-3.37,2.42-4.96,1.61-1.59,3.31-2.38,5.08-2.38,2.24,0,3.36,1.12,3.36,3.36Z"/>
      <path class="cls-1" d="m824.33,82.7c0,1.1-3.78,6.15-11.34,15.18-6.21,7.41-11.08,11.11-14.63,11.11-2.35,0-4.32-.91-5.91-2.73s-2.39-4.06-2.39-6.72c0-2.34.48-4.52,1.45-6.52.96-2,3.48-5.98,7.54-11.91,4.22-6.25,6.33-10.23,6.33-11.95,0-2.13-1.12-3.2-3.36-3.2-7.6,0-19.32,14.12-35.16,42.34-2.55-.21-4.09-.31-4.61-.31-1.82,0-3.54.1-5.16.31l12.19-19.3c6.93-11.04,10.39-17.94,10.39-20.7,0-1.56-.65-2.34-1.96-2.34-2.66,0-7.91,5.61-15.74,16.83-.47.68-.83,1.04-1.1,1.09-.26,0-.42-.16-.47-.47.05-.26.16-.47.31-.63l1.49-1.96c7.98-10.7,13.35-16.05,16.12-16.05,1.77,0,3.29.81,4.54,2.42,1.25,1.62,1.88,3.54,1.88,5.78,0,3.33-1.95,7.97-5.86,13.91,6.15-8.49,10.87-14.3,14.18-17.42,3.31-3.12,6.37-4.69,9.18-4.69,2.29,0,4.22.94,5.78,2.81s2.34,4.19,2.34,6.95c0,3.49-2.4,8.83-7.19,16.02-4.9,7.34-7.34,12.03-7.34,14.06,0,2.14,1.07,3.2,3.21,3.2,4.64,0,12.65-8.27,24.02-24.8.26-.52.52-.78.78-.78.31,0,.47.16.47.47Z"/>
      <path class="cls-1" d="m879.14,82.7c0,1.1-3.81,6.15-11.42,15.18-6.15,7.41-11,11.11-14.55,11.11-2.4,0-4.36-.9-5.87-2.7-1.51-1.8-2.27-4.05-2.27-6.76s.83-5.86,2.5-9.14c-5.21,7.29-9.19,12.21-11.95,14.77-2.76,2.55-5.44,3.83-8.05,3.83-2.76,0-5.08-1.19-6.95-3.55s-2.81-5.35-2.81-8.95c0-10,7.06-18.85,21.17-26.56,6.2-3.44,11.2-5.16,15-5.16,3.23,0,4.84,1.56,4.84,4.69,0,.89-.21,2.06-.62,3.52l3.98-7.58c1.56.37,2.94.55,4.14.55,1.41,0,3.23-.18,5.47-.55l-13.83,22.89c-4.79,8.02-7.19,13.31-7.19,15.86s1.02,3.67,3.05,3.67,5.42-2.39,10.01-7.16c4.59-4.77,9.26-10.65,14-17.65.31-.52.6-.78.86-.78.31,0,.47.16.47.47Zm-21.52-12.93c0-2.55-1.17-3.83-3.52-3.83-4.79,0-11.08,4.69-18.87,14.06-7.79,9.38-11.68,16.95-11.68,22.73,0,3.39,1.51,5.08,4.53,5.08,3.59,0,9.82-5.96,18.67-17.89,7.24-9.79,10.86-16.51,10.86-20.16Z"/>
    </g>
    <g>
      <g>
        <path class="cls-1" d="m194.43,195.36c-4.32.74-4.8,1.52-6.6,6.97-1.64,4.91-6.87,21.71-10.03,32.09h-1.39c-3.32-9.55-7.77-21.61-10.67-29.14-3.34,9.56-7.15,20.32-10.09,29.14h-1.41c-3.2-10.84-6.5-21.55-9.8-32.35-1.58-5.17-2.1-6.03-6.12-6.71v-.84h15.82v.84c-4.41.76-4.59,1.71-3.59,5.07,2.19,7.43,4.75,15.78,7.08,23.23,3.01-8.66,7.52-22.17,9.72-28.66h1.23c3.52,9.64,7.22,19.2,10.72,28.58,2.59-8.24,4.98-16.5,6.61-22.4,1.08-3.99.78-4.99-4.77-5.83v-.84h13.29v.84Z"/>
        <path class="cls-1" d="m226.42,224.42c-.3,2.06-1.38,7.54-1.78,9.1h-28.56v-.88c5.2-.72,5.6-1.06,5.6-6.25v-24.61c0-5.32-.26-5.75-4.66-6.38v-.88h17.76c5.63,0,7.78-.04,8.49-.12.04,2.22.28,6.22.54,8.51l-.92.16c-.46-1.52-1.26-3.72-2.33-5.09-1.1-1.45-2.21-1.72-5.75-1.72h-5.21c-1.39,0-1.58.22-1.58,1.59v14.19h6.39c4.51,0,4.81-1.13,5.61-4.96h.9v11.67h-.9c-.9-3.77-1.17-4.96-5.57-4.96h-6.43v13.28c0,4.14,1.15,4.69,4.75,4.73h4.38c3.31,0,4.15-.5,5.65-2.35,1.02-1.24,1.89-3.07,2.79-5.22l.86.18Z"/>
        <path class="cls-1" d="m246.26,194.52c7.37,0,12.92,1.68,16.54,5.06,3.24,3.04,5.22,7.23,5.22,12.96,0,7.28-2.8,12.6-7.22,16.06-4.36,3.4-9.44,4.92-15.43,4.92h-16.06v-.88c4.47-.78,4.95-1.19,4.95-6.31v-24.6c0-5.17-.52-5.63-4.95-6.33v-.88h16.96Zm-5.68,30.72c.04,5.11,1.91,6.65,7.03,6.65,8.9,0,13.21-6.63,13.21-18.3,0-6.46-2.01-11.83-5.94-14.77-2.53-2.1-5.49-2.9-9.4-2.9-2.19,0-3.56.36-4.21.79-.68.46-.81,1.29-.81,3.44l.12,25.09Z"/>
        <path class="cls-1" d="m287.93,194.52c7.37,0,12.92,1.68,16.54,5.06,3.24,3.04,5.22,7.23,5.22,12.96,0,7.28-2.8,12.6-7.22,16.06-4.36,3.4-9.44,4.92-15.43,4.92h-16.06v-.88c4.47-.78,4.95-1.19,4.95-6.31v-24.6c0-5.17-.52-5.63-4.95-6.33v-.88h16.96Zm-5.68,30.72c.04,5.11,1.91,6.65,7.03,6.65,8.9,0,13.21-6.63,13.21-18.3,0-6.46-2.01-11.83-5.94-14.77-2.53-2.1-5.49-2.9-9.4-2.9-2.19,0-3.56.36-4.21.79-.68.46-.81,1.29-.81,3.44l.12,25.09Z"/>
        <path class="cls-1" d="m312.64,233.52v-.88c4.58-.8,4.95-1.26,4.95-6.51v-24.25c0-5.37-.42-5.79-4.95-6.49v-.88h16.28v.88c-4.55.74-5.01,1.08-5.01,6.49v24.21c0,5.34.38,5.72,5.01,6.55v.88h-16.28Z"/>
        <path class="cls-1" d="m373.93,195.4c-4.06.88-4.78,1.56-4.9,5.64-.06,1.75-.18,3.11-.18,8.99v24.27h-1.31l-26.94-32.67v16.01c0,5.64.08,7.42.18,9.38.2,3.87.77,4.85,6.03,5.62v.88h-13.75v-.88c4.48-.79,5.13-1.56,5.32-5.53.1-1.95.26-4.25.26-9.48v-16.43c0-1.2-.32-2.19-.92-2.95-1.52-2-2.85-2.44-5.34-2.86v-.88h10.39l24.18,28.65v-13.14c0-5.88-.14-7.19-.22-9-.2-4.07-1.37-5-6.51-5.64v-.88h13.7v.88Z"/>
        <path class="cls-1" d="m414.88,216.63c-3.31.78-3.82,1.24-3.82,4.52v5.41c0,2.18.1,4.16.46,5.78-3.52.7-9.21,2.08-13.79,2.08-13.58,0-21.34-8.09-21.34-20.1,0-13.8,10.58-20.63,22.59-20.63,5.84,0,9.97,1.08,11.57,1.18.12,2.41.3,5.97.72,9.17l-.92.2c-.93-3.82-2.58-6.98-6.69-8.26-1.81-.58-3.79-.84-6.13-.84-8.59,0-13.84,6.39-13.84,17.95,0,10.24,3.62,19.91,14.42,19.91,1.53,0,3.72-.26,4.9-.98,1.07-.62,1.69-1.39,1.69-4.43v-5.72c0-3.99-.46-4.52-5.42-5.24v-.92h15.59v.92Z"/>
        <path class="cls-1" d="m431.32,233.52v-.88c4.58-.8,4.95-1.26,4.95-6.51v-24.25c0-5.37-.42-5.79-4.95-6.49v-.88h16.28v.88c-4.55.74-5.01,1.08-5.01,6.49v24.21c0,5.34.38,5.72,5.01,6.55v.88h-16.28Z"/>
        <path class="cls-1" d="m492.61,195.4c-4.06.88-4.78,1.56-4.9,5.64-.06,1.75-.18,3.11-.18,8.99v24.27h-1.31l-26.94-32.67v16.01c0,5.64.08,7.42.18,9.38.2,3.87.77,4.85,6.03,5.62v.88h-13.75v-.88c4.48-.79,5.13-1.56,5.32-5.53.1-1.95.26-4.25.26-9.48v-16.43c0-1.2-.32-2.19-.92-2.95-1.52-2-2.85-2.44-5.34-2.86v-.88h10.39l24.18,28.65v-13.14c0-5.88-.14-7.19-.22-9-.2-4.07-1.37-5-6.51-5.64v-.88h13.7v.88Z"/>
        <path class="cls-1" d="m534.52,195.36c-4.18.62-4.74,1.58-7.17,7.32-2.17,5.21-8.08,20.02-12.55,31.74h-1.23c-3.8-10.5-9.09-24.56-11.96-32.34-2.03-5.34-2.64-6.06-6.61-6.72v-.84h16.11v.84c-4.37.78-4.38,1.71-3.51,4.27,1.23,3.72,6.5,17.82,9.25,25.14,2.17-5.42,6.42-16.91,8.83-23.52,1.59-4.36,1.34-5.11-4.3-5.89v-.84h13.15v.84Z"/>
        <path class="cls-1" d="m536.9,233.52v-.88c4.58-.8,4.95-1.26,4.95-6.51v-24.25c0-5.37-.42-5.79-4.95-6.49v-.88h16.28v.88c-4.55.74-5.01,1.08-5.01,6.49v24.21c0,5.34.38,5.72,5.01,6.55v.88h-16.28Z"/>
        <path class="cls-1" d="m590.14,203.26c-.61-2.09-.99-3.5-2.11-4.94-1.02-1.58-1.8-2.11-5.05-2.11h-5.82v30.21c0,4.93.54,5.47,5.43,6.23v.88h-16.96v-.88c4.69-.92,5.21-1.25,5.21-6.23v-30.21h-6.22c-2.85,0-3.51.81-4.35,1.94-.94,1.29-1.67,3.13-2.3,5.2h-1c.34-3.24.64-6.99.78-10.03h.76c.92,1.17,1.66,1.21,3.51,1.21h24.52c1.62,0,2.4-.18,3.37-1.21h.76c0,2.62.12,6.66.42,9.81l-.94.14Z"/>
        <path class="cls-1" d="m612.13,233.52v-.88c3.85-.79,4.2-1.39,3.25-4.18-.74-2.19-1.93-5.75-3.38-9.68h-11.36c-1.12,3.14-2.15,5.96-2.93,8.38-1.36,4.04-.73,4.54,4.26,5.48v.88h-12.85v-.88c3.75-.64,4.61-1.29,6.76-6.74l12.44-31.91,1.35-.2c3.76,10.72,7.66,21.35,11.64,32.08,2.02,5.57,2.66,5.96,6.36,6.76v.88h-15.53Zm-5.66-30.72c-1.88,5.02-3.41,9.5-5.15,14.13h10.02l-4.87-14.13Z"/>
        <path class="cls-1" d="m658.91,203.26c-.61-2.09-.99-3.5-2.11-4.94-1.02-1.58-1.8-2.11-5.05-2.11h-5.82v30.21c0,4.93.54,5.47,5.43,6.23v.88h-16.96v-.88c4.69-.92,5.21-1.25,5.21-6.23v-30.21h-6.22c-2.85,0-3.51.81-4.35,1.94-.94,1.29-1.67,3.13-2.3,5.2h-1c.34-3.24.64-6.99.78-10.03h.76c.92,1.17,1.66,1.21,3.51,1.21h24.52c1.62,0,2.4-.18,3.37-1.21h.76c0,2.62.12,6.66.42,9.81l-.94.14Z"/>
        <path class="cls-1" d="m663.75,233.52v-.88c4.58-.8,4.95-1.26,4.95-6.51v-24.25c0-5.37-.42-5.79-4.95-6.49v-.88h16.28v.88c-4.55.74-5.01,1.08-5.01,6.49v24.21c0,5.34.38,5.72,5.01,6.55v.88h-16.28Z"/>
        <path class="cls-1" d="m702.85,193.68c10.43,0,19.31,8.26,19.31,19.92,0,12.56-8.78,20.82-19.6,20.82s-19.6-8.87-19.6-19.99c0-10.47,7.44-20.74,19.89-20.74Zm-1.18,1.44c-6.26,0-11.33,6.01-11.33,17.8s5.11,20.04,13.35,20.04c6.38,0,11.09-6.08,11.09-17.7,0-12.69-5.29-20.14-13.11-20.14Z"/>
        <path class="cls-1" d="m765.78,195.4c-4.06.88-4.78,1.56-4.9,5.64-.06,1.75-.18,3.11-.18,8.99v24.27h-1.31l-26.94-32.67v16.01c0,5.64.08,7.42.18,9.38.2,3.87.77,4.85,6.03,5.62v.88h-13.75v-.88c4.48-.79,5.13-1.56,5.32-5.53.1-1.95.26-4.25.26-9.48v-16.43c0-1.2-.32-2.19-.92-2.95-1.52-2-2.85-2.44-5.34-2.86v-.88h10.39l24.18,28.65v-13.14c0-5.88-.14-7.19-.22-9-.2-4.07-1.37-5-6.51-5.64v-.88h13.7v.88Z"/>
      </g>
      <rect class="cls-1" y="214.52" width="125.5" height="1"/>
      <rect class="cls-1" x="776.5" y="214.52" width="112.5" height="1"/>
    </g>
    <g>
      <path class="cls-1" d="m172.26,401.44c3.7-3.36,7.52-6.86,11.47-10.5,3.95-3.64,6.93-6.52,8.95-8.65,5.32-5.04,8.85-9.41,10.58-13.1,1.74-3.7,2.6-7.64,2.6-11.84,0-4.7-.96-8.43-2.89-11.17-1.92-2.74-4.73-4.12-8.41-4.12-2.68,0-5.17.71-7.49,2.14-2.31,1.43-3.47,2.95-3.47,4.58,0,2.69,1.45,4.03,4.34,4.03,2.11,0,3.82.63,5.13,1.89,1.31,1.26,1.96,2.9,1.96,4.91,0,2.52-.87,4.62-2.6,6.3-1.74,1.68-3.86,2.52-6.38,2.52-3.14,0-5.74-.91-7.81-2.73-2.07-1.82-3.11-4.21-3.11-7.18,0-3.47,1.18-6.62,3.53-9.45,2.35-2.83,5-4.89,7.94-6.17,2.94-1.29,5.54-2.11,7.81-2.48,2.27-.36,4.69-.55,7.27-.55,6.77,0,12.54,1.51,17.3,4.54,4.76,3.02,7.14,7.39,7.14,13.1,0,3.58-1.11,6.78-3.32,9.58-2.21,2.8-4.69,4.91-7.43,6.34-2.74,1.43-6.96,3.25-12.64,5.46-5.68,2.21-8.83,3.82-9.45,4.83v.34c1.4-.11,3.01-.2,4.83-.25,1.82-.06,3.77-.08,5.84-.08h13.27c2.74,0,4.67-.34,5.8-1.01,1.12-.67,1.94-1.62,2.48-2.86.53-1.23.98-2.44,1.34-3.61.36-1.18.69-2.16.97-2.94h1.09l-5.38,28.73h-51.24v-.59Z"/>
      <path class="cls-1" d="m292.97,371.45c0,8.12-2.69,15.41-8.06,21.88-5.38,6.47-12.29,9.7-20.75,9.7-8.9,0-15.93-3.36-21.08-10.08-5.15-6.72-7.73-13.89-7.73-21.5,0-8.12,2.77-15.41,8.32-21.88s12.38-9.7,20.5-9.7,15.3,3.29,20.71,9.87c5.4,6.58,8.11,13.82,8.11,21.71Zm-20.92,0c0-4.65-.08-8.62-.25-11.93-.17-3.3-.49-6.51-.97-9.62-.48-3.11-1.21-5.29-2.18-6.55-.98-1.26-2.48-1.89-4.49-1.89-1.85,0-3.32.66-4.41,1.97-1.09,1.32-1.83,3.32-2.23,6.01-.39,2.69-.7,6.05-.92,10.08-.22,4.03-.34,8.01-.34,11.93,0,4.31.1,8.22.29,11.72.2,3.5.52,6.79.97,9.87.45,3.08,1.16,5.25,2.14,6.51.98,1.26,2.48,1.89,4.49,1.89,1.85,0,3.32-.66,4.41-1.97,1.09-1.31,1.82-3.3,2.18-5.96.36-2.66.67-6.1.92-10.33.25-4.23.38-8.13.38-11.72Z"/>
      <path class="cls-1" d="m297.34,401.44c3.7-3.36,7.52-6.86,11.47-10.5,3.95-3.64,6.93-6.52,8.95-8.65,5.32-5.04,8.85-9.41,10.58-13.1,1.74-3.7,2.6-7.64,2.6-11.84,0-4.7-.96-8.43-2.89-11.17-1.92-2.74-4.73-4.12-8.41-4.12-2.68,0-5.17.71-7.49,2.14s-3.47,2.95-3.47,4.58c0,2.69,1.44,4.03,4.34,4.03,2.11,0,3.82.63,5.13,1.89,1.31,1.26,1.96,2.9,1.96,4.91,0,2.52-.87,4.62-2.6,6.3-1.74,1.68-3.86,2.52-6.38,2.52-3.14,0-5.74-.91-7.81-2.73-2.07-1.82-3.11-4.21-3.11-7.18,0-3.47,1.18-6.62,3.53-9.45,2.35-2.83,5-4.89,7.94-6.17,2.94-1.29,5.54-2.11,7.81-2.48,2.27-.36,4.69-.55,7.27-.55,6.78,0,12.54,1.51,17.3,4.54s7.14,7.39,7.14,13.1c0,3.58-1.11,6.78-3.32,9.58-2.21,2.8-4.69,4.91-7.43,6.34-2.75,1.43-6.96,3.25-12.64,5.46-5.68,2.21-8.83,3.82-9.45,4.83v.34c1.4-.11,3.01-.2,4.83-.25,1.82-.06,3.77-.08,5.84-.08h13.27c2.74,0,4.67-.34,5.8-1.01,1.12-.67,1.95-1.62,2.48-2.86.53-1.23.98-2.44,1.34-3.61.36-1.18.68-2.16.97-2.94h1.09l-5.38,28.73h-51.24v-.59Z"/>
      <path class="cls-1" d="m387.55,403.04c-4.54,0-8.5-.9-11.89-2.69-3.39-1.79-6.26-4.19-8.61-7.18-2.35-3-4.05-6.33-5.08-10-1.04-3.67-1.55-7.57-1.55-11.72,0-8.62,2.79-16.04,8.36-22.26,5.57-6.22,13.12-9.32,22.64-9.32,5.71,0,10.63,1.12,14.74,3.36,4.12,2.24,6.17,5.26,6.17,9.07,0,2.3-.87,4.15-2.6,5.54-1.74,1.4-3.84,2.1-6.3,2.1-2.91,0-5.39-1.02-7.43-3.07-2.04-2.04-3.07-4.61-3.07-7.69,0-.9.15-1.75.46-2.56.31-.81.63-1.67.97-2.56,0-.9-.28-1.57-.84-2.02-.56-.45-1.57-.67-3.02-.67-1.68,0-3.15.63-4.41,1.89-1.26,1.26-2.21,3.35-2.86,6.26-.64,2.91-1.13,5.89-1.47,8.95-.34,3.05-.5,5.98-.5,8.78l.34.17c.78-1.85,2.2-3.23,4.24-4.16,2.04-.92,4.44-1.39,7.18-1.39,6.05,0,11.03,1.76,14.95,5.29,3.92,3.53,5.88,8.06,5.88,13.61,0,6.5-2.56,11.83-7.69,16-5.12,4.17-11.33,6.26-18.61,6.26Zm6.22-19.91c0-1.4-.04-2.77-.13-4.12-.08-1.34-.21-2.83-.38-4.45,0-2.86-.48-5.21-1.43-7.06s-2.44-2.77-4.45-2.77c-1.68,0-3.02.66-4.03,1.97-1.01,1.32-1.61,2.55-1.81,3.7-.2,1.15-.32,2.81-.38,5-.06,2.18-.08,4.4-.08,6.64v1.09c0,2.74.2,5.74.59,8.99.39,3.25,1.01,5.61,1.85,7.1.84,1.48,2.21,2.23,4.12,2.23s3.42-.78,4.37-2.35c.95-1.57,1.43-3.92,1.43-7.06,0-.9.05-2.46.17-4.7.11-2.24.17-3.64.17-4.2Z"/>
      <path class="cls-1" d="m419.57,395.35c0-2,.72-3.7,2.17-5.1,1.45-1.4,3.2-2.1,5.25-2.1s3.81.69,5.29,2.06c1.47,1.38,2.21,3.09,2.21,5.14s-.73,3.78-2.17,5.17c-1.45,1.4-3.22,2.1-5.33,2.1s-3.8-.7-5.25-2.1c-1.45-1.4-2.17-3.12-2.17-5.17Z"/>
      <path class="cls-1" d="m495.92,383.28l.3,6.9c.3,3.3,1.02,5.53,2.17,6.68,1.15,1.15,2.67,1.85,4.58,2.1,1.9.25,3.52.4,4.88.45,1.35.05,2.82.13,4.42.23v2.4h-70.8v-2.4c1.1,0,2.22-.02,3.38-.08,1.15-.05,3.1-.25,5.85-.6,2.75-.35,4.7-1.15,5.85-2.4,1.15-1.25,1.88-3.47,2.18-6.67l.3-6.9v-70.5l-.3-6.9c-.3-3.1-1.03-5.37-2.18-6.82-1.15-1.45-2.85-2.33-5.1-2.62-2.25-.3-4.53-.52-6.83-.68-2.3-.15-3.95-.27-4.95-.38v-2.4h56.25v90.6Z"/>
      <path class="cls-1" d="m519.02,395.35c0-2,.72-3.7,2.17-5.1,1.45-1.4,3.2-2.1,5.25-2.1s3.81.69,5.29,2.06c1.47,1.38,2.21,3.09,2.21,5.14s-.73,3.78-2.17,5.17c-1.45,1.4-3.23,2.1-5.33,2.1s-3.8-.7-5.25-2.1c-1.45-1.4-2.17-3.12-2.17-5.17Z"/>
      <path class="cls-1" d="m595.36,383.28l.3,6.9c.3,3.3,1.02,5.53,2.17,6.68,1.15,1.15,2.67,1.85,4.58,2.1,1.9.25,3.53.4,4.88.45,1.35.05,2.82.13,4.42.23v2.4h-70.8v-2.4c1.1,0,2.22-.02,3.38-.08,1.15-.05,3.1-.25,5.85-.6,2.75-.35,4.7-1.15,5.85-2.4,1.15-1.25,1.88-3.47,2.17-6.67l.3-6.9v-70.5l-.3-6.9c-.3-3.1-1.03-5.37-2.17-6.82-1.15-1.45-2.85-2.33-5.1-2.62-2.25-.3-4.53-.52-6.82-.68-2.3-.15-3.95-.27-4.95-.38v-2.4h56.25v90.6Z"/>
      <path class="cls-1" d="m639.61,352.83c-4.6-3.3-8.05-7.2-10.35-11.7-2.3-4.5-3.45-9.65-3.45-15.45,0-6.8,1.92-12.75,5.78-17.85,3.85-5.1,8.97-9.17,15.38-12.22,6.4-3.05,13.95-4.58,22.65-4.58,10.7,0,19.65,2.62,26.85,7.88s10.8,12.08,10.8,20.48c0,4.1-1.2,7.6-3.6,10.5-2.4,2.9-5.85,4.95-10.35,6.15v.6c5.4,3,9.95,7.05,13.65,12.15,3.7,5.1,5.55,10.8,5.55,17.1,0,11.5-4.53,20.7-13.58,27.6-9.05,6.9-20.12,10.35-33.22,10.35-5.4,0-10.55-.65-15.45-1.95-4.9-1.3-10.88-4.25-17.92-8.85-7.05-4.6-10.58-11.65-10.58-21.15,0-5.2,1.67-9.42,5.03-12.68,3.35-3.25,7.62-5.12,12.83-5.62v-.75Zm2.25,1.5c-2.9,1.6-5.2,4.1-6.9,7.5-1.7,3.4-2.55,7.6-2.55,12.6,0,7.5,3.1,13.8,9.3,18.9,6.2,5.1,14.1,7.65,23.7,7.65,5.6,0,10.52-1.4,14.77-4.2,4.25-2.8,6.38-6.75,6.38-11.85,0-4.6-1.15-8.37-3.45-11.32-2.3-2.95-7.53-6.05-15.68-9.3-8.15-3.25-16.68-6.57-25.57-9.98Zm48.9-19.05c2.7-2.1,4.77-4.73,6.23-7.88,1.45-3.15,2.17-6.67,2.17-10.58,0-7.1-2.58-12.67-7.73-16.72-5.15-4.05-12.03-6.08-20.62-6.08-5,0-9.15,1.4-12.45,4.2-3.3,2.8-4.95,6.45-4.95,10.95s1.5,8.05,4.5,10.95c3,2.9,5.97,4.98,8.92,6.23,2.95,1.25,7.17,2.8,12.67,4.65,5.5,1.85,9.25,3.28,11.25,4.27Z"/>
      <path class="cls-1" d="m186.52,460.46l.08,1.75c.08.84.26,1.4.55,1.69.29.29.68.47,1.16.53.48.06.89.1,1.23.11.34.01.72.03,1.12.06v.61h-17.94v-.61c.28,0,.56,0,.85-.02.29-.01.79-.06,1.48-.15.7-.09,1.19-.29,1.48-.61.29-.32.48-.88.55-1.69l.08-1.75v-17.86l-.08-1.75c-.08-.78-.26-1.36-.55-1.73-.29-.37-.72-.59-1.29-.67-.57-.08-1.15-.13-1.73-.17-.58-.04-1-.07-1.25-.1v-.61h14.25v22.95Z"/>
      <path class="cls-1" d="m209.24,449.51c2.61,0,4.67.65,6.19,1.94,1.52,1.3,2.28,3.05,2.28,5.26,0,2.97-1.55,5.21-4.65,6.7-3.1,1.5-6.58,2.25-10.43,2.25-2.61,0-4.96-.65-7.07-1.94-2.1-1.29-3.15-2.9-3.15-4.83,0-1.44.49-2.65,1.48-3.61.99-.96,2.2-1.44,3.65-1.44,1.52,0,2.75.4,3.71,1.2s1.42,1.84,1.42,3.14c0,.94-.18,1.65-.55,2.15-.37.49-.85,1-1.44,1.52-.59.52-.96.85-1.08,1.01s-.19.39-.19.72c0,.46.35.82,1.06,1.08.71.27,1.56.4,2.55.4,1.82,0,3.2-.67,4.12-2.01.92-1.34,1.39-3.13,1.39-5.36,0-1.98-.5-3.73-1.5-5.26-1-1.53-2.36-2.3-4.08-2.3-.61,0-1.18.08-1.71.23-.48.18-.95.35-1.41.53-.13,0-.26-.06-.4-.17-.14-.11-.21-.25-.21-.4,0-.3.27-.51.82-.61.54-.1,1.17-.15,1.88-.15,1.75,0,3.1-.51,4.07-1.52.96-1.01,1.44-2.44,1.44-4.29,0-1.62-.34-3-1.01-4.12-.67-1.13-1.77-1.69-3.29-1.69-.89,0-1.73.17-2.53.51-.8.34-1.2.81-1.2,1.42,0,.33.1.61.3.83.2.23.6.39,1.2.49.59.1,1.11.4,1.54.89.43.49.65,1.12.65,1.87,0,1.09-.41,1.92-1.23,2.5-.82.58-1.89.87-3.21.87-1.24,0-2.26-.37-3.04-1.1-.79-.73-1.18-1.68-1.18-2.84s.62-2.24,1.86-3.31c1.24-1.07,2.67-1.84,4.29-2.29,1.62-.45,3.25-.68,4.9-.68,3.24,0,5.85.52,7.81,1.55,1.96,1.04,2.95,2.68,2.95,4.92,0,1.69-.68,3.01-2.03,3.96-1.36.95-3.01,1.51-4.96,1.69v.3Z"/>
      <path class="cls-1" d="m221.1,450.84c0-1.01.37-1.87,1.1-2.58.73-.71,1.62-1.06,2.66-1.06s1.93.35,2.68,1.05c.75.7,1.12,1.56,1.12,2.6s-.37,1.91-1.1,2.62c-.73.71-1.63,1.06-2.7,1.06s-1.93-.35-2.66-1.06c-.74-.71-1.1-1.58-1.1-2.62Zm0,10.98c0-1.01.37-1.87,1.1-2.58.73-.71,1.62-1.06,2.66-1.06s1.93.35,2.68,1.04c.75.7,1.12,1.56,1.12,2.6s-.37,1.91-1.1,2.62c-.73.71-1.63,1.06-2.7,1.06s-1.93-.35-2.66-1.06c-.74-.71-1.1-1.58-1.1-2.62Z"/>
      <path class="cls-1" d="m245.68,460.46l.08,1.75c.08.84.26,1.4.55,1.69.29.29.68.47,1.16.53.48.06.89.1,1.24.11.34.01.71.03,1.12.06v.61h-17.94v-.61c.28,0,.56,0,.86-.02.29-.01.79-.06,1.48-.15.7-.09,1.19-.29,1.48-.61.29-.32.47-.88.55-1.69l.08-1.75v-17.86l-.08-1.75c-.08-.78-.26-1.36-.55-1.73-.29-.37-.72-.59-1.29-.67-.57-.08-1.15-.13-1.73-.17s-1-.07-1.25-.1v-.61h14.25v22.95Z"/>
      <path class="cls-1" d="m278.29,451.38c0,3.67-1.22,6.97-3.65,9.9-2.43,2.93-5.56,4.39-9.39,4.39-4.03,0-7.21-1.52-9.54-4.56-2.33-3.04-3.5-6.28-3.5-9.73,0-3.67,1.25-6.97,3.76-9.9,2.51-2.93,5.6-4.39,9.27-4.39s6.92,1.49,9.37,4.47c2.44,2.98,3.67,6.25,3.67,9.82Zm-9.46,0c0-2.1-.04-3.9-.11-5.4-.08-1.49-.22-2.94-.44-4.35-.21-1.41-.54-2.39-.99-2.96-.44-.57-1.12-.85-2.03-.85-.84,0-1.5.3-2,.89s-.83,1.5-1.01,2.72c-.18,1.22-.32,2.74-.42,4.56-.1,1.82-.15,3.62-.15,5.4,0,1.95.04,3.72.13,5.3.09,1.58.23,3.07.44,4.46.2,1.39.53,2.38.97,2.94.44.57,1.12.85,2.03.85.84,0,1.5-.3,2-.89.49-.59.82-1.49.99-2.7.17-1.2.3-2.76.42-4.67.11-1.91.17-3.68.17-5.3Z"/>
      <path class="cls-1" d="m304.01,451.38v8.89l.08,1.75c.08.81.28,1.39.61,1.75.33.35.89.58,1.67.68l1.94.15v.61h-18.24v-.61h1.18c.56-.08,1.09-.15,1.6-.21.51-.06.91-.25,1.2-.57.29-.32.48-.88.55-1.69l.08-1.75v-18.01l-.08-1.75c-.08-.81-.27-1.38-.57-1.71-.3-.33-.74-.53-1.29-.61-.56-.08-1.04-.12-1.44-.13-.41-.01-.79-.03-1.14-.06v-.61l16.99-.04c2.36,0,4.27.1,5.74.3,1.47.2,2.67.61,3.59,1.22.92.61,1.66,1.36,2.2,2.26.54.9.82,1.94.82,3.13,0,.89-.16,1.77-.47,2.66-.32.89-.8,1.65-1.46,2.28-.66.63-1.48,1.13-2.45,1.48-.98.35-2.53.53-4.66.53v.27c1.29.28,2.38.55,3.25.8.87.25,1.67.62,2.38,1.11.71.48,1.35,1.2,1.92,2.15s1.03,2,1.39,3.13.67,1.93.95,2.4c.28.47.67.71,1.18.71.66,0,1.1-.42,1.31-1.27.21-.85.32-1.82.32-2.91h.61c0,1.24-.08,2.23-.23,2.96-.15.73-.53,1.5-1.14,2.3-.61.8-1.48,1.44-2.6,1.94-1.13.49-2.35.74-3.67.74-2.05,0-3.69-.59-4.92-1.77-1.23-1.18-1.99-2.73-2.28-4.65-.29-1.92-.53-3.54-.7-4.86-.28-1.47-.65-2.33-1.1-2.57-.46-.24-.95-.37-1.48-.4-.53-.02-1.06-.04-1.6-.04Zm3.04-.8c.96-.15,1.69-.85,2.18-2.09.49-1.24.74-2.62.74-4.14,0-1.24-.25-2.46-.76-3.67-.51-1.2-1.12-1.91-1.82-2.11-.71-.2-1.34-.32-1.9-.34-.56-.02-1.05-.05-1.48-.08v12.54h1.29c.71,0,1.29-.04,1.75-.11Z"/>
      <path class="cls-1" d="m339.19,464.45c1.06-.03,2.15-.04,3.27-.06,1.11-.01,2.29-.1,3.53-.27,1.24-.16,2.77-1.42,4.6-3.76,1.82-2.34,3.17-4.76,4.03-7.24h.61v12.08h-29.87v-.61c.33,0,.71-.02,1.14-.06s.92-.09,1.46-.15c.54-.06.96-.25,1.25-.57.29-.32.48-.88.55-1.69l.08-1.75v-18.01l-.08-1.75c-.08-.81-.27-1.38-.57-1.71-.3-.33-.73-.53-1.27-.61-.54-.08-1.04-.12-1.48-.13-.44-.01-.84-.03-1.2-.06v-.61h29.22v11.25h-.61c-1.29-2.84-2.86-5.23-4.71-7.16-1.85-1.94-3.4-2.97-4.66-3.1-1.25-.13-2.31-.2-3.17-.23-.86-.02-1.43-.04-1.71-.04h-.34l-.08,12.46,1.6-.08c1.47-.15,2.58-.84,3.33-2.07.75-1.23,1.12-2.68,1.12-4.35h.72v13.83h-.72c0-1.7-.37-3.18-1.12-4.45-.75-1.27-1.86-1.98-3.33-2.13l-1.6-.08v13.07Z"/>
      <path class="cls-1" d="m375.02,465.66c-4.36,0-7.94-1.35-10.74-4.05-2.8-2.7-4.2-6.11-4.2-10.24s1.39-7.67,4.16-10.32c2.77-2.65,6.35-3.97,10.74-3.97,1.87,0,3.5.32,4.86.95l4.03,2.28c.76,0,1.27-.26,1.52-.78.25-.52.43-1.26.53-2.22h.76v12.01h-.65c-1.12-3.09-1.91-5.18-2.38-6.27s-1.25-2.14-2.34-3.15c-1.09-1.01-2.48-1.52-4.18-1.52-2.2,0-3.84,1.24-4.9,3.72-1.06,2.48-1.6,5.38-1.6,8.7,0,3.57.64,6.67,1.92,9.29s3.16,3.93,5.64,3.93c2.31,0,4.16-.84,5.55-2.51,1.39-1.67,2.32-3.85,2.77-6.54l.65.11c-.36,3.04-1.51,5.56-3.46,7.56-1.95,2-4.85,3-8.7,3Z"/>
      <path class="cls-1" d="m403.34,464.45c1.06-.03,2.15-.04,3.27-.06,1.11-.01,2.29-.1,3.53-.27,1.24-.16,2.77-1.42,4.6-3.76,1.82-2.34,3.17-4.76,4.03-7.24h.61v12.08h-29.87v-.61c.33,0,.71-.02,1.14-.06s.92-.09,1.46-.15c.54-.06.96-.25,1.25-.57.29-.32.48-.88.55-1.69l.08-1.75v-18.01l-.08-1.75c-.08-.81-.27-1.38-.57-1.71-.3-.33-.73-.53-1.27-.61-.54-.08-1.04-.12-1.48-.13-.44-.01-.84-.03-1.2-.06v-.61h29.22v11.25h-.61c-1.29-2.84-2.86-5.23-4.71-7.16-1.85-1.94-3.4-2.97-4.66-3.1-1.25-.13-2.31-.2-3.17-.23-.86-.02-1.43-.04-1.71-.04h-.34l-.08,12.46,1.6-.08c1.47-.15,2.58-.84,3.33-2.07.75-1.23,1.12-2.68,1.12-4.35h.72v13.83h-.72c0-1.7-.37-3.18-1.12-4.45-.75-1.27-1.86-1.98-3.33-2.13l-1.6-.08v13.07Z"/>
      <path class="cls-1" d="m441.69,465.21h-18.54v-.61h1.18c.53-.08,1.05-.15,1.56-.21.51-.06.91-.25,1.2-.57.29-.32.47-.88.55-1.69l.08-1.75v-18.01l-.08-1.75c-.08-.81-.27-1.38-.57-1.71-.3-.33-.73-.53-1.27-.61-.54-.08-1.04-.12-1.48-.13-.44-.01-.84-.03-1.2-.06v-.61l17.75-.04c4.13,0,6.87.46,8.23,1.37,1.35.91,2.3,1.89,2.83,2.95s.8,2.18.8,3.4c0,1.14-.18,2.23-.53,3.27-.35,1.04-.9,1.89-1.63,2.56-.74.67-1.65,1.17-2.74,1.5-1.09.33-2.5.49-4.22.49s-2.98,0-3.99.02c-1.01.01-1.86.03-2.55.06v7.3l.08,1.75c.08.81.26,1.37.55,1.69.29.32.72.51,1.27.59.56.08,1.1.12,1.63.13.53.01.9.03,1.1.06v.61Zm1.52-20.1c0-1.44-.19-2.85-.57-4.22-.38-1.37-.96-2.16-1.73-2.38-.77-.22-1.52-.33-2.24-.34-.72-.01-1.26-.02-1.62-.02v14.21c.51-.02,1.03-.05,1.56-.08.53-.02,1.23-.12,2.11-.29.87-.16,1.51-.92,1.9-2.28.39-1.35.59-2.89.59-4.62Z"/>
      <path class="cls-1" d="m455.32,437.51h30.02v12.2h-.65c-.68-1.54-1.5-3.19-2.45-4.92s-1.94-3.25-2.98-4.54-1.95-1.94-2.74-1.94l-1.52-.08v22.15l.08,1.75c.08.81.25,1.37.51,1.69.27.32.68.51,1.24.57.56.06,1.06.11,1.52.13.46.03.86.05,1.22.08v.61h-18.58v-.61l2.51-.11c.76-.08,1.28-.27,1.56-.57.28-.3.46-.87.53-1.71l.08-1.75v-22.23l-1.48.08c-.81,0-1.71.6-2.7,1.8-.99,1.2-1.98,2.72-2.98,4.56-1,1.84-1.84,3.52-2.53,5.04h-.65v-12.2Z"/>
      <path class="cls-1" d="m505.39,465.21h-17.9v-.61c.18,0,.42,0,.72-.02.3-.01.8-.06,1.5-.15.7-.09,1.19-.3,1.48-.63s.48-.89.55-1.67l.08-1.75v-18.05l-.08-1.75c-.08-.81-.25-1.37-.51-1.69-.27-.32-.79-.53-1.58-.63l-2.05-.15v-.61h17.78v.61l-2.05.11c-.79.08-1.31.26-1.58.55-.27.29-.44.87-.51,1.73l-.08,1.75v18.2l.08,1.75c.08.84.26,1.4.55,1.69.29.29.83.49,1.62.59l1.98.11v.61Z"/>
      <path class="cls-1" d="m538.6,451.38c0,4.05-1.53,7.45-4.6,10.18s-6.69,4.1-10.87,4.1-8-1.35-10.93-4.05c-2.93-2.7-4.39-6.11-4.39-10.24s1.49-7.7,4.48-10.34c2.99-2.63,6.6-3.95,10.83-3.95s7.87,1.34,10.91,4.01,4.56,6.1,4.56,10.28Zm-11.55-10.37c-.76-2.13-2.06-3.19-3.91-3.19-.94,0-1.75.3-2.43.91-.68.61-1.21,1.49-1.58,2.64-.37,1.15-.63,2.64-.8,4.45-.17,1.81-.25,3.67-.25,5.57,0,2.61.1,4.74.3,6.38.2,1.65.58,3.26,1.14,4.83.56,1.57,1.76,2.36,3.61,2.36.94,0,1.75-.3,2.43-.91.68-.61,1.21-1.49,1.58-2.64.37-1.15.63-2.63.8-4.45.16-1.81.25-3.67.25-5.57,0-2.25-.08-4.21-.23-5.87-.15-1.66-.46-3.16-.91-4.5Z"/>
      <path class="cls-1" d="m573.91,438.11c-.33.03-.69.05-1.08.08-.39.03-.94.1-1.65.21-.71.11-1.25.41-1.62.87-.37.47-.59,1.11-.67,1.92l-.08,1.82v22.19h-4.64l-18.05-23.1h-.15v17.75l.08,1.82c.08.84.29,1.46.63,1.86s.86.67,1.56.78c.7.11,1.29.18,1.79.21.49.03.83.05,1.01.08v.61h-10.98v-.61c.33-.02.7-.05,1.11-.08.41-.02,1.13-.12,2.16-.29,1.03-.16,1.63-1.02,1.78-2.56l.08-1.82v-17.29l-.08-1.75c-.33-.53-.73-1.03-1.19-1.48-.46-.46-.96-.77-1.51-.95-.55-.18-1.08-.27-1.59-.27h-1.15v-.61h14.54l13.66,17.48h.15v-12.12l-.08-1.82c-.08-.81-.29-1.42-.63-1.84-.34-.42-.85-.68-1.54-.8-.68-.11-1.23-.18-1.65-.21-.42-.02-.8-.05-1.16-.08v-.61h10.94v.61Z"/>
      <path class="cls-1" d="m617.69,451.38c0,4.05-1.53,7.45-4.6,10.18s-6.69,4.1-10.87,4.1-8-1.35-10.93-4.05c-2.93-2.7-4.39-6.11-4.39-10.24s1.49-7.7,4.48-10.34c2.99-2.63,6.6-3.95,10.83-3.95s7.87,1.34,10.91,4.01,4.56,6.1,4.56,10.28Zm-11.55-10.37c-.76-2.13-2.06-3.19-3.91-3.19-.94,0-1.75.3-2.43.91-.68.61-1.21,1.49-1.58,2.64-.37,1.15-.63,2.64-.8,4.45-.17,1.81-.25,3.67-.25,5.57,0,2.61.1,4.74.3,6.38.2,1.65.58,3.26,1.14,4.83.56,1.57,1.76,2.36,3.61,2.36.94,0,1.75-.3,2.43-.91.68-.61,1.21-1.49,1.58-2.64.37-1.15.63-2.63.8-4.45.16-1.81.25-3.67.25-5.57,0-2.25-.08-4.21-.23-5.87-.15-1.66-.46-3.16-.91-4.5Z"/>
      <path class="cls-1" d="m638.36,465.21h-18.54v-.61h1.18c.53-.08,1.05-.15,1.56-.21.51-.06.91-.25,1.2-.57.29-.32.47-.88.55-1.69l.08-1.75v-18.01l-.08-1.75c-.08-.81-.27-1.38-.57-1.71-.3-.33-.73-.53-1.27-.61-.54-.08-1.04-.12-1.48-.13-.44-.01-.84-.03-1.2-.06v-.61l17.75-.04c4.13,0,6.87.46,8.23,1.37,1.35.91,2.3,1.89,2.83,2.95s.8,2.18.8,3.4c0,1.14-.18,2.23-.53,3.27-.35,1.04-.9,1.89-1.63,2.56-.74.67-1.65,1.17-2.74,1.5-1.09.33-2.5.49-4.22.49s-2.98,0-3.99.02c-1.01.01-1.86.03-2.55.06v7.3l.08,1.75c.08.81.26,1.37.55,1.69.29.32.72.51,1.27.59.56.08,1.1.12,1.63.13.53.01.9.03,1.1.06v.61Zm1.52-20.1c0-1.44-.19-2.85-.57-4.22-.38-1.37-.96-2.16-1.73-2.38-.77-.22-1.52-.33-2.24-.34-.72-.01-1.26-.02-1.62-.02v14.21c.51-.02,1.03-.05,1.56-.08.53-.02,1.23-.12,2.11-.29.87-.16,1.51-.92,1.9-2.28.39-1.35.59-2.89.59-4.62Z"/>
      <path class="cls-1" d="m663.87,464.45c1.06-.03,2.15-.04,3.27-.06,1.11-.01,2.29-.1,3.53-.27,1.24-.16,2.77-1.42,4.6-3.76,1.82-2.34,3.17-4.76,4.03-7.24h.61v12.08h-29.87v-.61c.33,0,.71-.02,1.14-.06s.92-.09,1.46-.15c.54-.06.96-.25,1.25-.57.29-.32.48-.88.55-1.69l.08-1.75v-18.01l-.08-1.75c-.08-.81-.27-1.38-.57-1.71-.3-.33-.73-.53-1.27-.61-.54-.08-1.04-.12-1.48-.13-.44-.01-.84-.03-1.2-.06v-.61h29.22v11.25h-.61c-1.29-2.84-2.86-5.23-4.71-7.16-1.85-1.94-3.4-2.97-4.66-3.1-1.25-.13-2.31-.2-3.17-.23-.86-.02-1.43-.04-1.71-.04h-.34l-.08,12.46,1.6-.08c1.47-.15,2.58-.84,3.33-2.07.75-1.23,1.12-2.68,1.12-4.35h.72v13.83h-.72c0-1.7-.37-3.18-1.12-4.45-.75-1.27-1.86-1.98-3.33-2.13l-1.6-.08v13.07Z"/>
      <path class="cls-1" d="m717.17,438.11c-.33.03-.69.05-1.08.08-.39.03-.94.1-1.65.21-.71.11-1.25.41-1.62.87-.37.47-.59,1.11-.67,1.92l-.08,1.82v22.19h-4.64l-18.05-23.1h-.15v17.75l.08,1.82c.08.84.29,1.46.63,1.86s.86.67,1.56.78c.7.11,1.29.18,1.79.21.49.03.83.05,1.01.08v.61h-10.98v-.61c.33-.02.7-.05,1.11-.08.41-.02,1.13-.12,2.16-.29,1.03-.16,1.63-1.02,1.78-2.56l.08-1.82v-17.29l-.08-1.75c-.33-.53-.73-1.03-1.19-1.48-.46-.46-.96-.77-1.51-.95-.55-.18-1.08-.27-1.59-.27h-1.15v-.61h14.54l13.66,17.48h.15v-12.12l-.08-1.82c-.08-.81-.29-1.42-.63-1.84-.34-.42-.85-.68-1.54-.8-.68-.11-1.23-.18-1.65-.21-.42-.02-.8-.05-1.16-.08v-.61h10.94v.61Z"/>
    </g>
  </g>
</svg>